<svg width="588" height="367" viewBox="0 0 588 367" fill="none" xmlns="http://www.w3.org/2000/svg">
<path d="M562.516 222.146C562.516 222.146 517.134 274.412 410.167 277.448C303.201 280.485 187.927 218.177 117.328 233.293C46.7292 248.408 -13.199 192.246 2.53126 126.215C16.8539 66.0923 154.133 48.6244 240.891 73.5071C327.648 98.3897 431.664 89.7268 472.478 71.5833C513.292 53.4398 556.478 74.0624 575.033 103.336C593.589 132.61 594.005 192.591 562.516 222.146Z" fill="white"/>
<path d="M166.737 193.285C166.737 193.285 160.738 204.345 162.696 205.384C164.655 206.422 169.326 197.321 169.326 197.321L166.737 193.285Z" fill="#D55B5D"/>
<path d="M164.812 189.481C164.812 189.481 158.812 200.541 160.77 201.579C162.729 202.618 167.4 193.516 167.4 193.516L164.812 189.481Z" fill="#D55B5D"/>
<path d="M154.088 92.8177L158.651 128.149C158.651 128.149 165.646 164.967 167.786 178.332L156.347 180.168C156.347 180.168 141.58 136.671 140.209 129.514C138.837 122.356 138.024 102.554 138.024 102.554L154.088 92.8177Z" fill="#E38680"/>
<path d="M156.952 177.605C155.642 180.158 154.819 182.932 154.526 185.786C154.178 190.166 155.323 201 155.726 201.346C155.828 201.414 155.945 201.455 156.067 201.466C156.694 201.542 157.326 201.37 157.828 200.986C158.329 200.602 158.66 200.037 158.75 199.412L160.633 187.865C160.633 187.865 166.391 194.438 167.657 197.32C168.923 200.201 164.538 208.496 165.69 209.765C166.841 211.033 166.999 211.033 168.362 209.767C169.724 208.5 172.957 199.282 173.306 194.788C173.654 190.293 167.551 176.889 167.551 176.889L156.952 177.605Z" fill="#E38680"/>
<path d="M132.057 330.525L133.875 346.751L134.126 356.009C138.142 357.068 142.22 357.877 146.336 358.432C151.232 358.925 157.842 357.994 158.792 356.091C159.742 354.187 148.015 346.493 147.498 345.881C146.98 345.269 146.296 329.262 146.296 329.262L132.057 330.525Z" fill="#E38680"/>
<path d="M133.987 350.879C133.807 354.217 133.898 357.564 134.258 360.888C134.857 364.502 139.854 364.116 148.02 365.147C156.186 366.177 160.088 366.948 164.825 366.193C169.562 365.439 171.178 365.019 171.59 361.753C172.003 358.487 155.158 351.673 155.158 351.673C155.158 351.673 154.521 355.581 146.988 354.783C142.449 354.301 138.04 352.977 133.987 350.879Z" fill="#3B2539"/>
<path d="M85.6391 332.028L83.0999 348.157L82.4361 357.395C78.3769 358.274 74.267 358.9 70.1303 359.271C65.2171 359.545 58.655 358.321 57.7909 356.377C56.9268 354.433 68.9852 347.269 69.5294 346.68C70.0735 346.092 71.4713 330.132 71.4713 330.132L85.6391 332.028Z" fill="#E38680"/>
<path d="M82.8038 352.277C82.8346 355.62 82.5946 358.959 82.0863 362.263C81.3268 365.847 76.3516 365.239 68.1479 365.904C59.9443 366.569 56.0118 367.165 51.3131 366.2C46.6144 365.235 45.0187 364.744 44.7525 361.463C44.4864 358.181 61.6181 352.126 61.6181 352.126C61.6181 352.126 62.0799 356.058 69.6414 355.597C74.197 355.318 78.6607 354.192 82.8038 352.277Z" fill="#3B2539"/>
<path d="M67.9924 93.7117L59.4604 114.275L65.0359 135.898C65.0359 135.898 82.0349 113.755 83.4056 106.239C84.2422 101.97 84.3507 97.59 83.7263 93.2849L67.9924 93.7117Z" fill="#E38680"/>
<path d="M112.365 9.67904C112.365 9.67904 101.192 9.65746 96.0039 19.5133C90.6952 29.599 82.8345 75.2595 89.133 80.6593C96.6304 87.0872 112.949 87.052 120.263 90.5257C137.521 98.7234 148.174 74.7545 137.152 29.7217C134.635 19.4383 129.565 8.50289 112.365 9.67904Z" fill="#3B2539"/>
<path d="M157.962 100.12L66.0895 94.2701C66.0895 94.2701 67.6949 88.5048 69.8269 82.7459C71.9589 76.9871 75.7473 74.7612 80.5265 73.8541C81.8749 73.5971 84.3483 73.0481 87.2032 72.3917C88.821 72.0184 90.5629 71.6119 92.2924 71.2044C98.3266 69.7836 104.214 68.3533 104.214 68.3533L113.817 68.198L113.873 68.1984L113.926 68.205L122.503 69.4433C122.503 69.4433 127.587 71.3291 133.144 73.3626C138.359 75.2695 143.992 77.3078 146.23 78.0377C150.855 79.5435 154.331 82.2318 155.715 88.2146C157.099 94.1974 157.962 100.12 157.962 100.12Z" fill="#EAA940"/>
<path d="M133.144 73.3626C131.506 79.8467 126.536 92.145 112.465 91.8999C96.8628 91.6273 93.1339 76.6636 92.2924 71.2044C98.3267 69.7836 104.214 68.3533 104.214 68.3533L113.817 68.198L113.873 68.1984L113.927 68.205L122.503 69.4433C122.503 69.4433 127.587 71.3291 133.144 73.3626Z" fill="#E38680"/>
<path d="M113.098 81.2148C110.818 81.1467 108.59 80.5165 106.612 79.3801C104.634 78.2436 102.967 76.6362 101.76 74.7006C100.615 72.8953 99.8355 70.8829 99.4658 68.7774C99.4431 68.6109 99.4875 68.4421 99.5892 68.3083C99.6909 68.1744 99.8416 68.0865 100.008 68.0637C100.175 68.041 100.343 68.0854 100.477 68.1871C100.611 68.2888 100.699 68.4394 100.722 68.606C101.076 70.5452 101.801 72.3979 102.856 74.0629C103.954 75.8231 105.472 77.2828 107.274 78.3105C109.076 79.3381 111.105 79.9015 113.179 79.9499C117.724 80.2392 121.223 78.7028 123.581 75.3831C124.66 73.8478 125.412 72.1063 125.788 70.2674C125.801 70.1851 125.83 70.1061 125.874 70.0351C125.918 69.964 125.975 69.9022 126.042 69.8533C126.11 69.8043 126.186 69.7692 126.267 69.7498C126.348 69.7304 126.432 69.7272 126.515 69.7404C126.597 69.7536 126.676 69.7829 126.747 69.8266C126.818 69.8703 126.879 69.9276 126.928 69.9952C126.977 70.0627 127.012 70.1393 127.031 70.2204C127.05 70.3015 127.053 70.3856 127.04 70.4678C126.636 72.5001 125.809 74.4248 124.614 76.1171C122.807 78.662 119.342 81.6124 113.098 81.2148Z" fill="#3B2669"/>
<path d="M113.928 68.197V68.2053L113.873 68.1989L113.928 68.197Z" fill="#5848BC"/>
<path d="M113.875 68.1991L113.819 68.1982V68.1899L113.875 68.1991Z" fill="#5848BC"/>
<path d="M121.625 69.9366C121.625 69.9366 119.137 73.9557 112.922 73.56C111.244 73.5024 109.607 73.0221 108.164 72.1636C106.721 71.3051 105.518 70.0963 104.667 68.649L105.224 65.6797L105.318 65.1803L106.195 60.5045L121.025 61.8649L121.159 63.6731L121.204 64.2653L121.625 69.9366Z" fill="#E38680"/>
<path d="M121.159 63.6731C117.612 66.3118 112.098 67.0508 105.224 65.6797L105.318 65.1803L106.195 60.5045L121.025 61.8649L121.159 63.6731Z" fill="#3B2539"/>
<path d="M101.397 47.8843C97.7789 52.3117 90.8217 48.7212 91.7014 42.5953C92.4995 37.0379 98.6811 38.3208 98.6811 38.3208L101.397 47.8843Z" fill="#D55B5D"/>
<path d="M99.4421 48.4141C100.842 49.0894 101.956 50.2415 102.584 51.6638C103.212 53.0861 103.312 54.6856 102.868 56.1753C102.423 57.665 101.462 58.9474 100.157 59.7926C98.8519 60.6377 97.2885 60.9903 95.7472 60.7871C94.2058 60.5838 92.7873 59.8381 91.7461 58.6836C90.7049 57.529 90.1091 56.0413 90.0656 54.4872C90.022 52.9331 90.5337 51.4144 91.5086 50.2034C92.4836 48.9924 93.8582 48.1685 95.3857 47.8793C95.8235 47.7955 96.2689 47.7576 96.7145 47.7661C96.7742 47.9848 96.807 48.2099 96.8122 48.4364C96.5418 48.4265 96.2711 48.4356 96.002 48.4636C94.608 48.6065 93.311 49.2432 92.3454 50.2586C91.3797 51.274 90.809 52.6013 90.7363 54.0007C90.6635 55.4001 91.0936 56.7794 91.9488 57.8894C92.804 58.9995 94.028 59.7672 95.3997 60.0538C96.7713 60.3404 98.2003 60.1271 99.4284 59.4523C100.657 58.7776 101.603 57.6859 102.097 56.3745C102.59 55.0631 102.599 53.6183 102.121 52.3012C101.642 50.984 100.709 49.8813 99.4887 49.1922L99.4421 48.4141Z" fill="#3B2669"/>
<path d="M98.3305 47.8076C98.2313 47.8012 98.1371 47.7617 98.063 47.6955C97.9889 47.6293 97.9391 47.5401 97.9215 47.4423C97.4405 44.7528 94.8547 42.1162 94.8286 42.0899C94.7876 42.0484 94.7551 41.9993 94.733 41.9452C94.711 41.8912 94.6997 41.8334 94.7 41.775C94.7003 41.7167 94.7121 41.6589 94.7347 41.6051C94.7573 41.5513 94.7903 41.5025 94.8317 41.4614C94.8732 41.4204 94.9223 41.3879 94.9764 41.3658C95.0304 41.3438 95.0882 41.3325 95.1466 41.3328C95.2049 41.3331 95.2627 41.3449 95.3165 41.3675C95.3703 41.3901 95.4191 41.4231 95.4602 41.4645C95.5746 41.58 98.2673 44.3269 98.7965 47.2858C98.8083 47.3522 98.8049 47.4203 98.7866 47.4852C98.7682 47.55 98.7353 47.6098 98.6904 47.6601C98.6455 47.7103 98.5898 47.7497 98.5274 47.7753C98.4651 47.8009 98.3977 47.8119 98.3305 47.8076Z" fill="#B33A41"/>
<path d="M97.3464 45.2242C97.2985 45.2211 97.2515 45.2103 97.2071 45.1922C96.4511 44.899 95.6356 44.793 94.8298 44.883C94.7137 44.9006 94.5953 44.8716 94.5005 44.8022C94.4057 44.7328 94.3422 44.6287 94.324 44.5126C94.3058 44.3966 94.3342 44.2781 94.4031 44.1829C94.472 44.0878 94.5758 44.0238 94.6918 44.005C95.6574 43.8877 96.637 44.0128 97.5421 44.3691C97.6398 44.4088 97.7202 44.4821 97.7688 44.5756C97.8175 44.6692 97.8312 44.777 97.8077 44.8798C97.7842 44.9826 97.7248 45.0737 97.6403 45.1368C97.5558 45.1999 97.4516 45.2309 97.3464 45.2242Z" fill="#B33A41"/>
<path d="M126.004 49.4511C129.032 54.3016 136.388 51.6225 136.292 45.4345C136.205 39.8208 129.911 40.3093 129.911 40.3093L126.004 49.4511Z" fill="#D55B5D"/>
<path d="M128.682 50.276C127.207 50.7681 125.956 51.7697 125.153 53.1009C124.35 54.4321 124.048 56.0058 124.3 57.5399C124.552 59.074 125.343 60.4679 126.53 61.4718C127.717 62.4756 129.223 63.0236 130.778 63.0175C132.333 63.0113 133.834 62.4515 135.014 61.4383C136.193 60.4252 136.972 59.0251 137.213 57.489C137.453 55.953 137.138 54.3817 136.324 53.0569C135.511 51.732 134.252 50.7404 132.773 50.2598C132.35 50.1213 131.913 50.0272 131.47 49.9791C131.383 50.1884 131.322 50.4076 131.288 50.6317C131.557 50.6561 131.825 50.6995 132.088 50.7615C133.453 51.0801 134.658 51.8761 135.487 53.0058C136.316 54.1355 136.714 55.5244 136.609 56.9216C136.503 58.3189 135.902 59.6324 134.913 60.625C133.924 61.6175 132.612 62.2237 131.215 62.334C129.818 62.4443 128.428 62.0514 127.295 61.2264C126.163 60.4013 125.363 59.1985 125.039 57.8351C124.716 56.4717 124.891 55.0375 125.532 53.7918C126.174 52.546 127.239 51.5706 128.537 51.0419L128.682 50.276Z" fill="#3B2669"/>
<path d="M129.056 49.7641C128.988 49.7598 128.923 49.7403 128.864 49.707C128.806 49.6737 128.755 49.6276 128.717 49.572C128.679 49.5165 128.654 49.453 128.644 49.3864C128.634 49.3198 128.639 49.2517 128.659 49.1874C129.56 46.3194 132.579 43.9362 132.707 43.8362C132.8 43.7641 132.918 43.7318 133.035 43.7463C133.151 43.7608 133.257 43.821 133.33 43.9137C133.402 44.0063 133.435 44.1239 133.421 44.2407C133.407 44.3574 133.347 44.4638 133.254 44.5365C133.225 44.5594 130.324 46.8522 129.508 49.4536C129.478 49.5484 129.417 49.6305 129.335 49.6868C129.253 49.743 129.155 49.7703 129.056 49.7641Z" fill="#B33A41"/>
<path d="M130.359 47.3262C130.254 47.3195 130.155 47.2756 130.079 47.2023C130.003 47.129 129.956 47.0311 129.945 46.9262C129.935 46.8212 129.962 46.716 130.023 46.6293C130.083 46.5427 130.172 46.4802 130.274 46.4532C131.217 46.2147 132.204 46.2148 133.147 46.4535C133.26 46.4865 133.356 46.563 133.412 46.6663C133.469 46.7697 133.483 46.8913 133.45 47.0044C133.417 47.1176 133.34 47.213 133.237 47.2698C133.133 47.3265 133.012 47.3398 132.899 47.3069C132.111 47.1156 131.289 47.1174 130.502 47.3121C130.455 47.3245 130.407 47.3293 130.359 47.3262Z" fill="#B33A41"/>
<path d="M97.7893 31.4546C96.5201 38.1492 96.973 45.0564 99.1053 51.5279C102.35 60.6926 107.245 63.7962 112.636 64.2246C118.769 64.7118 131.848 61.9803 131.668 32.7258C131.547 12.9588 100.679 11.6909 97.7893 31.4546Z" fill="#E38680"/>
<path d="M131.169 34.6082C122.858 34.2943 117.196 31.7044 113.615 29.1982C114.649 30.6749 115.97 31.9272 117.5 32.8799C112.061 33.9081 108.926 28.6027 107.623 25.6375C104.941 29.2378 101.443 32.1496 97.4156 34.1333C95.3167 12.9713 110.164 12.1682 122.055 14.0637C133.173 15.8358 137.572 34.8481 131.169 34.6082Z" fill="#3B2539"/>
<path d="M102.392 30.3349C102.392 30.3349 99.0842 35.9752 99.6662 42.0652C100.228 47.9384 99.4529 53.4994 96.5223 54.3023C96.5223 54.3023 98.649 51.637 97.1766 46.7249C95.7041 41.8128 95.6368 35.417 97.0068 32.5502C98.3768 29.6834 102.392 30.3349 102.392 30.3349Z" fill="#3B2539"/>
<path d="M127.673 31.9446C127.673 31.9446 130.238 37.9589 128.889 43.9259C127.587 49.6805 127.65 55.2948 130.455 56.4629C130.455 56.4629 128.684 53.5494 130.767 48.8637C132.851 44.178 133.729 37.8425 132.734 34.8251C131.738 31.8077 127.673 31.9446 127.673 31.9446Z" fill="#3B2539"/>
<path d="M103.197 36.9178C104.898 35.0001 107.28 33.8208 109.836 33.6303C109.994 33.6252 110.151 33.6519 110.298 33.7089C110.445 33.7659 110.579 33.8521 110.692 33.9622C110.805 34.0723 110.895 34.2041 110.955 34.3496C111.016 34.4951 111.047 34.6515 111.046 34.8092L111.046 34.8199C111.045 34.979 111.012 35.1364 110.948 35.2824C110.885 35.4284 110.793 35.56 110.677 35.6693C110.561 35.7786 110.425 35.8633 110.275 35.9182C110.126 35.9732 109.967 35.9972 109.808 35.989C107.564 35.8431 105.314 36.1592 103.197 36.9178Z" fill="#3B2539"/>
<path d="M125.93 38.3652C124.486 36.2472 122.273 34.7754 119.761 34.2623C119.606 34.2371 119.446 34.2437 119.293 34.2816C119.14 34.3195 118.996 34.388 118.87 34.4829C118.744 34.5777 118.639 34.6971 118.56 34.8338C118.482 34.9704 118.431 35.1216 118.412 35.2782L118.411 35.2888C118.392 35.4468 118.404 35.6071 118.449 35.7599C118.493 35.9128 118.568 36.055 118.669 36.1781C118.77 36.3012 118.895 36.4025 119.036 36.476C119.177 36.5494 119.331 36.5935 119.49 36.6054C121.735 36.7454 123.926 37.3443 125.93 38.3652Z" fill="#3B2539"/>
<path d="M113.731 59.0474C112.932 58.9922 112.151 58.7816 111.432 58.4275C111.345 58.3812 111.281 58.3026 111.252 58.2089C111.224 58.1152 111.234 58.014 111.28 57.9274C111.326 57.8409 111.404 57.7761 111.498 57.7472C111.591 57.7184 111.692 57.7277 111.779 57.7733C112.42 58.0973 113.126 58.2719 113.843 58.2841C114.561 58.2963 115.272 58.1457 115.924 57.8437C116.009 57.795 116.11 57.7821 116.205 57.808C116.3 57.8339 116.38 57.8964 116.429 57.9817C116.478 58.067 116.491 58.1681 116.465 58.2629C116.439 58.3576 116.376 58.4382 116.291 58.4869C115.512 58.9225 114.621 59.1175 113.731 59.0474Z" fill="#D55B5D"/>
<path d="M115.64 49.7124L115.611 49.7093L112.922 49.3196C112.874 49.3128 112.827 49.2966 112.785 49.2718C112.743 49.247 112.707 49.2142 112.677 49.1752C112.648 49.1362 112.627 49.0918 112.615 49.0446C112.603 48.9973 112.6 48.9481 112.607 48.8999C112.614 48.8516 112.63 48.8052 112.655 48.7633C112.68 48.7214 112.713 48.6849 112.752 48.6558C112.792 48.6267 112.836 48.6056 112.883 48.5938C112.931 48.5819 112.98 48.5795 113.028 48.5867L115.276 48.9126L115.009 41.9981C115.005 41.8999 115.04 41.8043 115.107 41.7322C115.174 41.6601 115.266 41.6174 115.364 41.6136C115.463 41.6098 115.558 41.6451 115.63 41.7119C115.702 41.7786 115.745 41.8712 115.749 41.9694L116.034 49.3285C116.036 49.3803 116.027 49.432 116.008 49.4801C115.988 49.5282 115.959 49.5718 115.922 49.608C115.885 49.6442 115.841 49.6722 115.792 49.6901C115.744 49.7081 115.692 49.7157 115.64 49.7124Z" fill="#D55B5D"/>
<path d="M108.345 52.2067C112.025 53.0972 115.841 53.2864 119.591 52.7646C119.354 54.1531 118.589 55.3962 117.456 56.2336C116.324 57.071 114.911 57.438 113.514 57.2577C108.941 56.9849 108.345 52.2067 108.345 52.2067Z" fill="#3B2669"/>
<path d="M108.755 41.5619C108.673 42.8436 108.024 43.8454 107.306 43.7996C106.587 43.7539 106.071 42.6779 106.153 41.3963C106.234 40.1147 106.883 39.1129 107.601 39.1586C108.32 39.2044 108.836 40.2803 108.755 41.5619Z" fill="#3B2539"/>
<path d="M122.593 42.4431C122.511 43.7247 121.863 44.7266 121.144 44.6808C120.426 44.6351 119.91 43.559 119.991 42.2774C120.073 40.9958 120.721 39.994 121.44 40.0397C122.158 40.0855 122.675 41.1615 122.593 42.4431Z" fill="#3B2539"/>
<path d="M103.697 46.0183C103.692 46.0972 103.663 46.1728 103.615 46.2356C103.567 46.2985 103.502 46.3456 103.427 46.3712C103.352 46.3967 103.271 46.3995 103.195 46.3792C103.119 46.3589 103.05 46.3164 102.998 46.257C102.945 46.1977 102.912 46.1242 102.901 46.0458C102.891 45.9675 102.904 45.8877 102.939 45.8168C102.974 45.7458 103.029 45.6867 103.097 45.647C103.166 45.6074 103.244 45.5889 103.323 45.5939C103.375 45.5972 103.427 45.6108 103.474 45.634C103.521 45.6571 103.563 45.6893 103.598 45.7287C103.632 45.7681 103.659 45.814 103.676 45.8636C103.693 45.9133 103.7 45.9659 103.697 46.0183Z" fill="#D55B5D"/>
<path d="M105.584 47.1055C105.579 47.1844 105.55 47.26 105.502 47.3228C105.454 47.3857 105.389 47.4328 105.314 47.4584C105.239 47.4839 105.158 47.4867 105.082 47.4664C105.005 47.4461 104.937 47.4035 104.885 47.3442C104.832 47.2848 104.799 47.2113 104.788 47.1329C104.778 47.0545 104.791 46.9748 104.826 46.9038C104.861 46.8329 104.916 46.7738 104.984 46.7341C105.052 46.6945 105.131 46.676 105.21 46.681C105.262 46.6843 105.314 46.6979 105.361 46.7211C105.408 46.7442 105.45 46.7764 105.485 46.8158C105.519 46.8552 105.546 46.9011 105.563 46.9508C105.58 47.0005 105.587 47.0531 105.584 47.1055Z" fill="#D55B5D"/>
<path d="M103.547 48.3686C103.542 48.4475 103.514 48.5232 103.466 48.586C103.418 48.6488 103.352 48.696 103.277 48.7215C103.202 48.7471 103.122 48.7499 103.045 48.7295C102.969 48.7092 102.9 48.6667 102.848 48.6073C102.796 48.548 102.762 48.4745 102.752 48.3961C102.741 48.3177 102.754 48.238 102.789 48.167C102.824 48.0961 102.879 48.037 102.948 47.9973C103.016 47.9577 103.095 47.9392 103.174 47.9442C103.226 47.9476 103.277 47.9612 103.324 47.9843C103.371 48.0075 103.414 48.0396 103.448 48.0791C103.483 48.1185 103.51 48.1643 103.526 48.214C103.543 48.2637 103.55 48.3162 103.547 48.3686Z" fill="#D55B5D"/>
<path d="M106.584 48.9627C106.579 49.0417 106.551 49.1173 106.503 49.1802C106.455 49.243 106.389 49.2902 106.315 49.3158C106.24 49.3414 106.159 49.3442 106.083 49.3238C106.006 49.3035 105.937 49.261 105.885 49.2016C105.833 49.1423 105.799 49.0688 105.789 48.9904C105.779 48.912 105.792 48.8322 105.826 48.7612C105.861 48.6902 105.916 48.6312 105.985 48.5915C106.053 48.5518 106.132 48.5333 106.211 48.5383C106.317 48.5451 106.415 48.5936 106.485 48.6732C106.556 48.7528 106.591 48.8569 106.584 48.9627Z" fill="#D55B5D"/>
<path d="M108.651 48.6937C108.646 48.7726 108.618 48.8483 108.57 48.9111C108.522 48.9739 108.456 49.0211 108.381 49.0466C108.306 49.0722 108.226 49.075 108.149 49.0546C108.073 49.0343 108.004 48.9918 107.952 48.9324C107.9 48.873 107.866 48.7995 107.856 48.7211C107.845 48.6427 107.858 48.563 107.893 48.492C107.928 48.4211 107.983 48.362 108.052 48.3223C108.12 48.2827 108.199 48.2642 108.278 48.2692C108.383 48.276 108.482 48.3245 108.552 48.4041C108.622 48.4837 108.658 48.5879 108.651 48.6937Z" fill="#D55B5D"/>
<path d="M107.847 46.6831C107.842 46.7621 107.814 46.8377 107.766 46.9005C107.718 46.9633 107.652 47.0105 107.577 47.036C107.503 47.0616 107.422 47.0644 107.345 47.0441C107.269 47.0237 107.2 46.9812 107.148 46.9219C107.096 46.8625 107.062 46.789 107.052 46.7106C107.041 46.6322 107.054 46.5525 107.089 46.4815C107.124 46.4106 107.179 46.3515 107.248 46.3119C107.316 46.2722 107.395 46.2537 107.474 46.2587C107.526 46.2621 107.577 46.2757 107.624 46.2988C107.671 46.322 107.714 46.3541 107.748 46.3936C107.783 46.433 107.81 46.4788 107.827 46.5285C107.843 46.5782 107.85 46.6307 107.847 46.6831Z" fill="#D55B5D"/>
<path d="M125.223 47.3889C125.218 47.4678 125.236 47.5465 125.276 47.6149C125.316 47.6833 125.375 47.7384 125.446 47.7732C125.517 47.8081 125.596 47.8211 125.675 47.8106C125.753 47.8001 125.827 47.7667 125.886 47.7144C125.945 47.6622 125.988 47.5935 126.008 47.5171C126.028 47.4407 126.026 47.3599 126 47.2851C125.975 47.2103 125.927 47.1447 125.865 47.0967C125.802 47.0486 125.726 47.0203 125.647 47.0153C125.595 47.0119 125.542 47.019 125.493 47.0359C125.443 47.0529 125.397 47.0795 125.358 47.1142C125.318 47.1489 125.286 47.191 125.263 47.2381C125.24 47.2853 125.226 47.3365 125.223 47.3889Z" fill="#D55B5D"/>
<path d="M123.213 48.228C123.208 48.3069 123.227 48.3855 123.266 48.4539C123.306 48.5223 123.365 48.5774 123.436 48.6123C123.507 48.6471 123.587 48.6601 123.665 48.6496C123.744 48.6392 123.817 48.6057 123.876 48.5534C123.936 48.5012 123.978 48.4325 123.999 48.3561C124.019 48.2797 124.016 48.1989 123.991 48.1241C123.965 48.0493 123.918 47.9837 123.855 47.9357C123.792 47.8877 123.717 47.8593 123.638 47.8543C123.585 47.851 123.533 47.858 123.483 47.875C123.433 47.8919 123.387 47.9185 123.348 47.9532C123.309 47.9879 123.276 48.0301 123.253 48.0772C123.23 48.1243 123.217 48.1756 123.213 48.228Z" fill="#D55B5D"/>
<path d="M125.073 49.7393C125.068 49.8182 125.086 49.8969 125.126 49.9653C125.166 50.0337 125.225 50.0888 125.296 50.1237C125.367 50.1585 125.447 50.1715 125.525 50.1611C125.603 50.1506 125.677 50.1171 125.736 50.0649C125.796 50.0126 125.838 49.9439 125.859 49.8675C125.879 49.7911 125.876 49.7103 125.85 49.6355C125.825 49.5607 125.778 49.4951 125.715 49.4471C125.652 49.399 125.576 49.3707 125.497 49.3657C125.392 49.359 125.287 49.3945 125.208 49.4646C125.128 49.5347 125.08 49.6335 125.073 49.7393Z" fill="#D55B5D"/>
<path d="M121.985 49.9433C121.98 50.0222 121.998 50.1009 122.038 50.1693C122.078 50.2377 122.137 50.2928 122.208 50.3277C122.279 50.3625 122.359 50.3755 122.437 50.3651C122.515 50.3546 122.589 50.3211 122.648 50.2689C122.708 50.2166 122.75 50.1479 122.77 50.0715C122.791 49.9951 122.788 49.9143 122.762 49.8395C122.737 49.7646 122.69 49.6991 122.627 49.651C122.564 49.603 122.488 49.5747 122.409 49.5697C122.304 49.5629 122.199 49.5985 122.12 49.6686C122.04 49.7387 121.992 49.8375 121.985 49.9433Z" fill="#D55B5D"/>
<path d="M119.969 49.4144C119.964 49.4933 119.983 49.5719 120.022 49.6403C120.062 49.7087 120.121 49.7638 120.192 49.7987C120.263 49.8335 120.343 49.8465 120.421 49.836C120.499 49.8256 120.573 49.7921 120.632 49.7398C120.692 49.6876 120.734 49.6189 120.755 49.5425C120.775 49.466 120.772 49.3853 120.747 49.3105C120.721 49.2357 120.674 49.1701 120.611 49.1221C120.548 49.074 120.472 49.0457 120.394 49.0407C120.288 49.034 120.184 49.0696 120.104 49.1397C120.024 49.2097 119.976 49.3085 119.969 49.4144Z" fill="#D55B5D"/>
<path d="M121.021 47.522C121.016 47.601 121.035 47.6796 121.075 47.748C121.114 47.8164 121.173 47.8716 121.244 47.9064C121.315 47.9412 121.395 47.9543 121.473 47.9438C121.552 47.9333 121.625 47.8999 121.685 47.8476C121.744 47.7954 121.787 47.7267 121.807 47.6502C121.827 47.5738 121.825 47.4931 121.799 47.4182C121.773 47.3434 121.726 47.2778 121.663 47.2298C121.601 47.1817 121.525 47.1534 121.446 47.1484C121.394 47.1451 121.341 47.1521 121.291 47.169C121.242 47.186 121.196 47.2126 121.156 47.2473C121.117 47.282 121.085 47.3241 121.062 47.3713C121.038 47.4184 121.025 47.4696 121.021 47.522Z" fill="#D55B5D"/>
<path d="M77.2893 88.1687L81.0047 138.06L78.0743 175.142C78.0743 175.142 86.3433 178.46 112.183 178.94C138.023 179.42 146.592 176.038 146.592 176.038L141.041 134.069L150.186 90.8999L127.929 93.8804C127.929 93.8804 88.9419 96.9063 77.2893 88.1687Z" fill="#EAA940"/>
<path d="M79.8202 153.049C79.8202 153.049 113.072 158.444 143.635 153.68C146.483 165.931 148.396 178.381 149.357 190.921C150.667 210.174 151.035 337.835 151.035 337.835L129.161 341.433L112.234 200.982L108.248 199.122L87.4078 340.46L64.8275 339.798C64.8275 339.798 67.3196 214.01 69.5501 194.661C71.7807 175.312 79.8202 153.049 79.8202 153.049Z" fill="#3B2539"/>
<path d="M48.9134 65.9212C47.2917 67.8089 45.8616 69.853 44.6443 72.0234L38.5594 67.9532L38.5626 67.9487C38.2377 67.7143 37.5456 67.2529 36.6455 66.673L36.644 66.6719V66.672C33.6289 64.7298 28.2559 61.4461 26.3069 60.7926C23.7754 59.9438 23.8222 62.1389 25.1332 62.965C26.1446 63.6022 32.1369 68.3868 34.8231 70.5405L34.7579 70.6793C32.0361 68.8887 25.7202 64.9676 23.5704 64.2468C21.039 63.3981 21.0859 65.5932 22.3968 66.4192C23.5293 67.1327 30.9043 73.0442 32.8929 74.6417L32.843 74.7475C29.8883 72.8336 24.2505 69.3714 22.2435 68.6986C19.712 67.8498 19.7589 70.0449 21.0698 70.8709C21.9353 71.4163 26.4483 74.9987 29.4165 77.3711C27.0552 76.0842 24.5971 74.9834 22.0647 74.0787C19.6891 73.4891 19.8932 75.4915 21.1517 76.15C22.0138 76.6011 26.7047 79.7517 29.5752 81.6924L37.6556 87.5363L39.2325 93.6594L51.6845 89.6729L49.6019 82.7878L49.1154 75.4029C49.659 73.0084 50.4411 69.7501 50.9665 68.3663C51.8443 66.0538 51.3024 63.5277 48.9134 65.9212Z" fill="#E38680"/>
<path d="M31.9707 79.7683C32.0148 79.7352 32.0499 79.6916 32.073 79.6415L36.9729 69.1421C36.9917 69.1019 37.0024 69.0584 37.0043 69.0141C37.0062 68.9698 36.9994 68.9255 36.9843 68.8838C36.9691 68.8421 36.9459 68.8038 36.9159 68.7711C36.886 68.7384 36.8499 68.7119 36.8097 68.6932C36.7695 68.6744 36.726 68.6638 36.6817 68.6618C36.6373 68.6599 36.5931 68.6667 36.5514 68.6818C36.5097 68.697 36.4714 68.7202 36.4387 68.7502C36.406 68.7801 36.3795 68.8163 36.3607 68.8565L31.4608 79.3559C31.429 79.4242 31.4209 79.5013 31.4379 79.5747C31.4549 79.6482 31.496 79.7139 31.5546 79.7613C31.6132 79.8088 31.686 79.8352 31.7614 79.8365C31.8368 79.8378 31.9105 79.8138 31.9707 79.7683Z" fill="#D55B5D"/>
<path d="M43.5351 78.9994C43.5944 78.9546 43.6373 78.8915 43.6571 78.8198C43.6769 78.7482 43.6726 78.672 43.6446 78.6031C43.0487 76.8493 43.1559 74.9328 43.9436 73.2564C43.984 73.1767 43.9912 73.0841 43.9635 72.9991C43.9358 72.9141 43.8756 72.8435 43.796 72.8028C43.7164 72.7621 43.6238 72.7546 43.5387 72.782C43.4536 72.8094 43.3828 72.8694 43.3418 72.9488C42.9019 73.8638 42.6468 74.8566 42.5913 75.8704C42.5357 76.8841 42.6808 77.8989 43.0181 78.8564C43.0347 78.8976 43.0593 78.9351 43.0904 78.9667C43.1215 78.9984 43.1586 79.0236 43.1994 79.0409C43.2403 79.0583 43.2842 79.0674 43.3286 79.0677C43.3729 79.0681 43.417 79.0597 43.4581 79.043C43.4856 79.032 43.5115 79.0173 43.5351 78.9994Z" fill="#D55B5D"/>
<path d="M38.5863 90.9392C38.5863 90.9392 46.9617 126.036 50.289 131.504C53.6163 136.972 57.4862 137.811 61.2868 137.609C65.0874 137.408 68.5341 132.685 67.9376 128.441C67.341 124.196 51.2589 87.8085 51.2589 87.8085C51.2589 87.8085 40.1136 88.271 38.5863 90.9392Z" fill="#E38680"/>
<path d="M449.378 327.429C449.474 331.344 449.251 335.26 448.711 339.138C447.853 344.191 440.227 351.004 440.227 351.004L449.396 355.726L462.629 350.578V328.271L449.378 327.429Z" fill="#E38680"/>
<path d="M443.182 346.741C443.182 346.741 439.321 351.603 435.103 354.248C430.884 356.893 430.67 359.11 430.741 360.182C430.813 361.255 434.388 362.828 441.823 362.685C449.259 362.542 451.618 360.969 454.907 360.325C457.786 359.726 460.591 358.815 463.272 357.608C464.345 357.036 462.629 345.525 462.629 345.525C460.569 348.022 457.841 349.882 454.764 350.888C449.831 352.389 452.548 348.814 452.762 347.098C452.977 345.382 445.184 343.952 444.254 344.024C443.325 344.095 443.182 346.741 443.182 346.741Z" fill="#3B2539"/>
<path d="M514.977 327.429C514.881 331.344 515.105 335.26 515.644 339.138C516.502 344.191 524.129 351.004 524.129 351.004L514.959 355.726L501.726 350.578V328.271L514.977 327.429Z" fill="#E38680"/>
<path d="M521.173 346.741C521.173 346.741 525.034 351.603 529.252 354.248C533.471 356.893 533.685 359.11 533.614 360.182C533.542 361.255 529.967 362.828 522.532 362.685C515.096 362.542 512.737 360.969 509.448 360.325C506.569 359.726 503.764 358.815 501.083 357.608C500.01 357.036 501.726 345.525 501.726 345.525C503.786 348.022 506.514 349.882 509.591 350.888C514.524 352.389 511.807 348.814 511.593 347.098C511.378 345.382 519.171 343.952 520.101 344.024C521.03 344.095 521.173 346.741 521.173 346.741Z" fill="#3B2539"/>
<path d="M443.086 150.396C443.086 150.396 442.826 208.567 443.086 228.789C443.345 249.011 442.971 332.555 442.971 332.555L469.27 335.472L477.048 174.346L480.159 172.531L496.276 339.012L520.991 333.528L508.111 158.494L443.086 150.396Z" fill="#3B2539"/>
<path d="M445.419 79.459L440.199 153.608C440.138 154.48 440.259 155.354 440.554 156.176C440.85 156.997 441.314 157.749 441.916 158.381C442.518 159.013 443.245 159.513 444.052 159.849C444.858 160.185 445.725 160.348 446.598 160.33L505.513 159.079C506.459 159.059 507.391 158.841 508.247 158.437C509.104 158.034 509.866 157.455 510.485 156.739C511.103 156.022 511.564 155.183 511.837 154.277C512.111 153.371 512.191 152.417 512.072 151.478L502.974 79.459H445.419Z" fill="#DD504F"/>
<path d="M513.012 85.5769L435.158 83.113C435.158 83.113 436.36 78.1938 438.007 73.2659C439.654 68.338 446.587 67.0057 450.604 66.1095C454.62 65.2118 466.699 60.1647 466.699 60.1647L474.816 59.7738L474.863 59.7726L474.909 59.7768L482.195 60.5922C482.195 60.5922 498.542 66.0694 502.493 67.2191C506.446 68.3676 509.458 70.5471 510.79 75.5693C512.123 80.5915 513.012 85.5769 513.012 85.5769Z" fill="#DD504F"/>
<path d="M474.944 71.3625C474.938 71.544 474.879 71.7198 474.773 71.8675C474.668 72.0152 474.52 72.1283 474.351 72.1925C474.181 72.2566 473.996 72.269 473.819 72.2279C473.642 72.1869 473.481 72.0943 473.357 71.9619C473.232 71.8295 473.15 71.6632 473.12 71.484C473.091 71.3048 473.115 71.1209 473.189 70.9554C473.264 70.7899 473.386 70.6503 473.54 70.5542C473.694 70.4581 473.874 70.4099 474.055 70.4156C474.299 70.4233 474.529 70.5274 474.696 70.705C474.862 70.8826 474.952 71.1191 474.944 71.3625Z" fill="#3B2669"/>
<path d="M474.79 76.2307C474.784 76.4123 474.725 76.588 474.619 76.7358C474.513 76.8835 474.366 76.9966 474.196 77.0608C474.026 77.125 473.841 77.1373 473.664 77.0962C473.487 77.0552 473.327 76.9626 473.202 76.8302C473.078 76.6977 472.996 76.5314 472.966 76.3523C472.936 76.1731 472.96 75.9891 473.035 75.8236C473.11 75.6581 473.232 75.5185 473.386 75.4224C473.54 75.3263 473.719 75.2781 473.901 75.2838C474.022 75.2877 474.14 75.3152 474.25 75.3648C474.36 75.4145 474.459 75.4853 474.541 75.5732C474.624 75.6611 474.688 75.7645 474.731 75.8773C474.774 75.9901 474.794 76.1102 474.79 76.2307Z" fill="#3B2669"/>
<path d="M474.636 81.0991C474.63 81.2806 474.571 81.4564 474.465 81.6041C474.359 81.7519 474.212 81.865 474.042 81.9291C473.872 81.9933 473.687 82.0056 473.51 81.9646C473.333 81.9235 473.173 81.8309 473.048 81.6985C472.924 81.5661 472.842 81.3998 472.812 81.2206C472.782 81.0415 472.806 80.8575 472.881 80.692C472.956 80.5265 473.078 80.3868 473.232 80.2908C473.386 80.1947 473.565 80.1464 473.747 80.1522C473.867 80.156 473.986 80.1835 474.096 80.2332C474.206 80.2828 474.305 80.3536 474.387 80.4416C474.47 80.5295 474.534 80.6328 474.577 80.7456C474.62 80.8585 474.64 80.9786 474.636 81.0991Z" fill="#3B2669"/>
<path d="M474.911 59.7701V59.7767L474.864 59.7729L474.911 59.7701Z" fill="#5848BC"/>
<path d="M474.866 59.7729L474.816 59.7739L474.817 59.7673L474.866 59.7729Z" fill="#5848BC"/>
<path d="M482.003 62.5739C482.003 62.5739 479.868 66.2814 474.235 66.1031C472.715 66.0995 471.221 65.7124 469.89 64.9775C468.56 64.2427 467.437 63.1839 466.625 61.8994L467.044 59.1972L467.114 58.7428L467.773 54.4878L481.227 55.2897L481.4 56.9215L481.458 57.4559L482.003 62.5739Z" fill="#E38680"/>
<path d="M467.114 58.7428C464.039 59.2467 461.133 60.4916 458.647 62.3701C458.647 62.3701 459.493 68.4669 466.22 74.6861L474.234 66.1031C471.029 64.6203 468.49 61.9962 467.114 58.7428Z" fill="#A7255B"/>
<path d="M481.61 59.2016C484.647 59.8989 487.468 61.3251 489.831 63.3569C489.831 63.3569 488.602 69.3881 481.494 75.1695L474.039 66.097C477.332 64.8198 480.031 62.3614 481.61 59.2016Z" fill="#A7255B"/>
<path d="M481.4 56.9215C478.268 59.4109 473.301 60.2388 467.044 59.1972L467.114 58.7428L467.773 54.4878L481.227 55.2897L481.4 56.9215Z" fill="#3B2539"/>
<path d="M463.067 43.2106C459.922 47.3201 453.525 44.2733 454.144 38.7064C454.705 33.6564 460.334 34.6381 460.334 34.6381L463.067 43.2106Z" fill="#D55B5D"/>
<path d="M460.291 43.2298C460.201 43.2269 460.115 43.1939 460.046 43.1361C459.977 43.0784 459.929 42.9991 459.911 42.9112C459.399 40.4973 456.982 38.1819 456.958 38.1588C456.881 38.0853 456.836 37.9843 456.834 37.878C456.831 37.7716 456.871 37.6686 456.944 37.5914C457.017 37.5142 457.118 37.4691 457.224 37.466C457.33 37.4629 457.434 37.5021 457.511 37.5749C457.618 37.6761 460.133 40.083 460.697 42.7443C460.71 42.804 460.709 42.8657 460.694 42.9249C460.679 42.984 460.651 43.039 460.612 43.0858C460.573 43.1325 460.524 43.1698 460.468 43.1948C460.412 43.2197 460.352 43.2317 460.291 43.2298Z" fill="#B33A41"/>
<path d="M459.326 40.9214C459.283 40.92 459.24 40.9115 459.199 40.8964C458.507 40.6531 457.766 40.5808 457.04 40.6855C456.935 40.7054 456.827 40.6828 456.739 40.6228C456.65 40.5628 456.59 40.4702 456.57 40.3654C456.55 40.2606 456.572 40.1522 456.632 40.064C456.692 39.9759 456.785 39.9151 456.89 39.8952C457.76 39.7612 458.65 39.846 459.479 40.1422C459.568 40.1753 459.643 40.2392 459.69 40.3225C459.736 40.4057 459.752 40.5028 459.734 40.5965C459.715 40.6902 459.664 40.7743 459.59 40.8338C459.515 40.8933 459.422 40.9244 459.326 40.9214Z" fill="#B33A41"/>
<path d="M485.372 43.9163C488.251 48.2166 494.828 45.5803 494.562 39.9855C494.321 34.91 488.642 35.5339 488.642 35.5339L485.372 43.9163Z" fill="#D55B5D"/>
<path d="M488.141 44.1112C488.109 44.1101 488.077 44.1052 488.046 44.0965C487.995 44.0823 487.947 44.0583 487.906 44.0257C487.864 43.9931 487.829 43.9527 487.803 43.9066C487.777 43.8606 487.761 43.81 487.754 43.7575C487.748 43.7051 487.752 43.6519 487.766 43.6011C488.498 40.9807 491.16 38.7376 491.273 38.6434C491.355 38.5757 491.461 38.5432 491.567 38.553C491.672 38.5628 491.77 38.6142 491.838 38.6958C491.906 38.7775 491.939 38.8828 491.93 38.9887C491.921 39.0946 491.87 39.1926 491.788 39.2611C491.763 39.2826 489.204 41.4406 488.541 43.8173C488.517 43.9039 488.464 43.9799 488.392 44.0332C488.319 44.0865 488.231 44.114 488.141 44.1112Z" fill="#B33A41"/>
<path d="M489.25 41.8684C489.154 41.8653 489.063 41.8285 488.993 41.7643C488.922 41.7002 488.876 41.6131 488.864 41.5184C488.852 41.4237 488.873 41.3278 488.925 41.2477C488.977 41.1676 489.056 41.1085 489.147 41.0811C489.993 40.838 490.887 40.8096 491.746 40.9984C491.798 41.0115 491.846 41.0346 491.888 41.0663C491.93 41.098 491.966 41.1377 491.993 41.1832C492.019 41.2286 492.037 41.279 492.045 41.3313C492.052 41.3835 492.049 41.4368 492.036 41.4879C492.023 41.5391 492 41.5871 491.968 41.6294C491.936 41.6716 491.897 41.7072 491.851 41.7341C491.806 41.7609 491.755 41.7786 491.703 41.7861C491.651 41.7935 491.598 41.7906 491.546 41.7774C490.828 41.6272 490.084 41.6526 489.378 41.8514C489.337 41.864 489.293 41.8697 489.25 41.8684Z" fill="#B33A41"/>
<path d="M459.329 28.4527C458.374 34.5452 458.984 40.7803 461.1 46.5727C464.299 54.7692 468.817 57.4351 473.707 57.6667C479.268 57.9302 491.02 55.0811 490.012 28.6233C489.33 10.7458 461.371 10.4914 459.329 28.4527Z" fill="#E38680"/>
<g opacity="0.5">
<path opacity="0.5" d="M469.26 43.3512C469.229 44.3354 467.473 45.0786 465.338 45.011C463.202 44.9434 461.496 44.0907 461.528 43.1064C461.559 42.1222 463.315 41.3791 465.45 41.4467C467.586 41.5142 469.291 42.3669 469.26 43.3512Z" fill="#D55B5D"/>
</g>
<g opacity="0.5">
<path opacity="0.5" d="M488.535 43.9612C488.567 42.9769 486.861 42.1242 484.726 42.0567C482.59 41.9891 480.834 42.7322 480.803 43.7164C480.772 44.7007 482.478 45.5534 484.613 45.621C486.748 45.6886 488.504 44.9455 488.535 43.9612Z" fill="#D55B5D"/>
</g>
<path d="M462.799 23.0265C462.799 23.0265 463.623 29.9069 460.637 32.3184L460.458 37.9689L458.734 38.4269C458.734 38.4269 457.485 30.8273 457.048 26.6042C456.202 18.4247 463.877 17.6338 463.877 17.6338L462.799 23.0265Z" fill="#3B2539"/>
<path d="M486.754 23.7845C486.754 23.7845 485.497 30.599 488.325 33.1946L488.146 38.8451L489.837 39.4112C489.837 39.4112 491.565 31.9057 492.268 27.7187C493.629 19.6091 486.02 18.3345 486.02 18.3345L486.754 23.7845Z" fill="#3B2539"/>
<path d="M474.538 53.2494C473.813 53.2226 473.1 53.0547 472.44 52.7551C472.36 52.7157 472.3 52.6464 472.271 52.5625C472.243 52.4785 472.249 52.3867 472.288 52.3071C472.327 52.2275 472.396 52.1666 472.48 52.1378C472.564 52.109 472.655 52.1146 472.735 52.1533C473.324 52.4279 473.968 52.5655 474.617 52.5558C475.267 52.546 475.906 52.3892 476.486 52.0971C476.524 52.0741 476.566 52.0587 476.609 52.0518C476.653 52.0449 476.697 52.0466 476.74 52.0568C476.783 52.0671 476.823 52.0856 476.859 52.1115C476.894 52.1373 476.924 52.17 476.947 52.2075C476.97 52.245 476.986 52.2867 476.993 52.3302C477 52.3736 476.998 52.418 476.988 52.4608C476.977 52.5036 476.959 52.544 476.933 52.5796C476.907 52.6153 476.875 52.6455 476.837 52.6685C476.145 53.085 475.345 53.2871 474.538 53.2494Z" fill="#3C496B"/>
<path d="M476.004 44.4523L475.977 44.4504L473.534 44.1756C473.49 44.1709 473.447 44.1575 473.409 44.1363C473.37 44.1151 473.336 44.0864 473.308 44.052C473.281 44.0176 473.26 43.978 473.248 43.9356C473.236 43.8932 473.232 43.8488 473.237 43.805C473.242 43.7611 473.255 43.7186 473.277 43.68C473.298 43.6414 473.327 43.6074 473.361 43.58C473.396 43.5525 473.436 43.5322 473.478 43.5201C473.521 43.508 473.565 43.5044 473.609 43.5095L475.652 43.7393L475.21 37.4924C475.204 37.404 475.233 37.3168 475.292 37.2501C475.35 37.1833 475.432 37.1423 475.521 37.136C475.609 37.1298 475.696 37.1588 475.763 37.2167C475.83 37.2746 475.872 37.3567 475.878 37.445L476.349 44.0937C476.352 44.1405 476.346 44.1875 476.33 44.2315C476.314 44.2756 476.289 44.3159 476.256 44.3497C476.224 44.3835 476.184 44.4101 476.141 44.4278C476.098 44.4454 476.051 44.4538 476.004 44.4523Z" fill="#D55B5D"/>
<path d="M469.465 47.2882C472.821 47.9872 476.277 48.0481 479.655 47.4677C479.481 48.7306 478.825 49.8771 477.824 50.6674C476.824 51.4577 475.557 51.8305 474.288 51.7078C470.143 51.5932 469.465 47.2882 469.465 47.2882Z" fill="#3B2669"/>
<path d="M469.54 37.2786C469.503 38.4402 468.945 39.3653 468.294 39.3447C467.643 39.3241 467.145 38.3657 467.181 37.2039C467.218 36.0422 467.776 35.1172 468.427 35.1379C469.078 35.1586 469.577 36.1169 469.54 37.2786Z" fill="#3B2539"/>
<path d="M482.084 37.6756C482.047 38.8374 481.489 39.7623 480.838 39.7417C480.187 39.7212 479.688 38.7627 479.725 37.6011C479.762 36.4394 480.32 35.5144 480.971 35.5349C481.622 35.5555 482.12 36.514 482.084 37.6756Z" fill="#3B2539"/>
<path d="M466.414 32.5685C467.431 32.0373 468.529 31.6778 469.663 31.5043C469.812 31.4892 469.955 31.4412 470.083 31.3637C470.21 31.2863 470.319 31.1814 470.401 31.0566C470.483 30.9319 470.536 30.7905 470.556 30.6426C470.577 30.4948 470.564 30.3443 470.519 30.2021L470.479 30.0792C470.41 29.866 470.272 29.6819 470.087 29.5566C469.901 29.4314 469.678 29.3722 469.455 29.3885C467.932 29.443 466.468 29.989 465.282 30.945C465.15 31.0702 465.054 31.2293 465.006 31.405C464.957 31.5807 464.958 31.7663 465.008 31.9416C465.047 32.0833 465.118 32.2145 465.214 32.3258C465.31 32.4372 465.429 32.526 465.564 32.5858C465.698 32.6457 465.844 32.6752 465.991 32.6722C466.138 32.6692 466.282 32.6338 466.414 32.5685Z" fill="#3B2539"/>
<path d="M483.175 33.0989C482.194 32.5045 481.121 32.0763 480 31.8314C479.853 31.807 479.713 31.75 479.59 31.6646C479.468 31.5793 479.366 31.4677 479.292 31.3381C479.218 31.2084 479.174 31.0639 479.163 30.9151C479.152 30.7663 479.175 30.6169 479.229 30.4778L479.276 30.3577C479.358 30.1492 479.508 29.9742 479.701 29.861C479.894 29.7477 480.12 29.7026 480.342 29.7331C481.858 29.8837 483.284 30.5212 484.408 31.5504C484.532 31.6836 484.618 31.8484 484.655 32.0269C484.692 32.2053 484.679 32.3904 484.619 32.5622C484.57 32.7011 484.492 32.8276 484.389 32.9327C484.286 33.0377 484.161 33.1188 484.023 33.17C483.885 33.2213 483.738 33.2415 483.591 33.2292C483.445 33.2169 483.303 33.1724 483.175 33.0989Z" fill="#3B2539"/>
<path d="M421.4 101.755C421.4 101.755 409.577 117.699 408.799 124.115C408.022 130.532 436.786 160.368 436.786 160.368L442.475 151.961L427.38 124.121L436.517 113.227L421.4 101.755Z" fill="#E38680"/>
<path d="M423.086 97.0881L420.142 102.531C420.142 102.531 431.453 112.811 436.411 114.927L439.716 112.266L423.086 97.0881Z" fill="#A7255B"/>
<path d="M439.041 71.3334L422.975 93.1187C422.385 93.8445 421.946 94.6807 421.683 95.5784C421.421 96.4761 421.34 97.4172 421.446 98.3464C421.552 99.2757 421.843 100.174 422.3 100.99C422.758 101.806 423.374 102.521 424.113 103.096L434.096 110.969C434.885 111.59 435.793 112.044 436.765 112.301C437.736 112.559 438.75 112.615 439.744 112.466C440.737 112.317 441.69 111.967 442.544 111.436C443.397 110.906 444.133 110.206 444.706 109.381C447.78 104.874 451.629 98.7556 453.646 93.7016C457.334 84.4616 439.041 71.3334 439.041 71.3334Z" fill="#DD504F"/>
<path d="M528.654 87.9233L533.134 92.1911C533.134 92.1911 525.549 105.461 521.486 109.005L517.522 107.494L528.654 87.9233Z" fill="#A7255B"/>
<path d="M505.527 68.3521L527.534 84.1136C528.319 84.6218 528.995 85.2816 529.522 86.0544C530.048 86.8272 530.416 87.6974 530.602 88.614C530.788 89.5306 530.789 90.4751 530.605 91.3922C530.422 92.3093 530.057 93.1804 529.532 93.9545L522.467 104.525C521.908 105.36 521.184 106.071 520.34 106.616C519.495 107.161 518.548 107.527 517.557 107.693C516.566 107.858 515.551 107.819 514.576 107.578C513.601 107.336 512.685 106.898 511.885 106.29C507.57 102.952 502.019 98.321 498.541 94.1366C492.18 86.4864 505.527 68.3521 505.527 68.3521Z" fill="#DD504F"/>
<path d="M458.634 156.018C457.317 155.258 455.957 154.578 454.559 153.979C454.548 153.955 454.541 153.928 454.528 153.905L454.309 153.87L454.291 153.862L454.29 153.867L442.475 151.961C442.475 151.961 434.484 157.714 436.786 160.368C438.872 162.772 447.177 165.82 448.723 166.373V166.373L448.724 166.374C448.884 166.431 448.972 166.462 448.972 166.462L448.977 166.455L451.95 167.405C451.95 167.405 453.397 170.668 454.661 170.538C455.925 170.408 454.661 166.137 453.295 165.289C452.463 164.798 451.605 164.352 450.724 163.954C450.758 163.904 450.79 163.854 450.824 163.803L453.633 164.701C453.633 164.701 455.28 168.415 456.718 168.267C458.157 168.119 456.718 163.258 455.164 162.293C454.326 161.795 453.464 161.342 452.58 160.934C452.607 160.885 452.635 160.837 452.662 160.788L455.386 161.659C455.386 161.659 457.033 165.373 458.472 165.225C459.91 165.077 458.471 160.217 456.917 159.251C456.008 158.714 455.072 158.225 454.112 157.788C454.149 157.693 454.185 157.598 454.22 157.504L457.104 158.426C457.104 158.426 458.751 162.14 460.189 161.992C461.628 161.843 460.189 156.983 458.634 156.018Z" fill="#E38680"/>
<path d="M518.854 101.442L533.334 68.8138L543.573 72.7701C543.573 72.7701 539.722 100.561 537.655 106.216C533.672 117.112 514.893 115.416 518.854 101.442Z" fill="#E38680"/>
<path d="M528.393 54.2298C530.392 55.3054 532.279 56.577 534.027 58.0258L537.873 52.5672L537.869 52.5642C538.069 52.2583 538.507 51.6386 539.083 50.8502L539.084 50.8487H539.084C541.014 48.2075 544.512 43.6516 545.957 42.4566C547.834 40.9046 548.513 42.7886 547.668 43.9214C547.016 44.7953 543.483 50.8317 541.901 53.5454L542.002 53.6421C543.733 51.226 547.825 45.8185 549.418 44.5005C551.295 42.9485 551.975 44.8325 551.129 45.9653C550.399 46.9438 546.058 54.3926 544.888 56.4041L544.965 56.478C546.854 53.8804 550.519 49.0859 552.007 47.8554C553.883 46.3034 554.563 48.1874 553.718 49.3201C553.16 50.0679 550.491 54.5963 548.742 57.5885C550.331 55.7193 552.062 53.9768 553.922 52.3769C555.751 51.0965 556.233 52.868 555.378 53.841C554.792 54.5074 551.831 58.7266 550.023 61.3191L544.293 70.118L542.768 75.7299L531.787 72.7463L533.333 68.8138L531.328 62.3677C530.081 60.5074 528.347 57.9899 527.446 56.984C525.941 55.3031 525.575 52.9751 528.393 54.2298Z" fill="#E38680"/>
<path d="M547.353 60.4662C547.305 60.4525 547.261 60.4269 547.225 60.3918L539.613 53.0594C539.554 53.0027 539.52 52.925 539.519 52.8432C539.517 52.7615 539.548 52.6826 539.605 52.6237C539.662 52.5648 539.74 52.5309 539.821 52.5294C539.903 52.5279 539.982 52.5589 540.041 52.6156L547.652 59.948C547.702 59.9958 547.734 60.0587 547.744 60.1268C547.753 60.1949 547.74 60.2643 547.705 60.3239C547.671 60.3835 547.618 60.4299 547.554 60.4557C547.49 60.4815 547.42 60.4852 547.353 60.4662Z" fill="#D55B5D"/>
<path d="M537.257 63.6008C537.192 63.5821 537.135 63.5425 537.094 63.488C537.054 63.4335 537.033 63.3672 537.034 63.2994C536.966 61.6112 536.247 60.0148 535.027 58.8458C534.967 58.7911 534.931 58.7147 534.926 58.6333C534.922 58.5519 534.95 58.4722 535.005 58.4115C535.059 58.3508 535.135 58.3141 535.217 58.3095C535.298 58.3049 535.378 58.3327 535.439 58.3868C536.113 59.0216 536.656 59.7832 537.035 60.628C537.415 61.4727 537.624 62.3841 537.65 63.3098C537.649 63.3503 537.641 63.3903 537.625 63.4274C537.609 63.4645 537.585 63.4981 537.556 63.5263C537.527 63.5544 537.493 63.5765 537.455 63.5914C537.417 63.6062 537.377 63.6135 537.337 63.6127C537.31 63.6124 537.283 63.6084 537.257 63.6008Z" fill="#D55B5D"/>
<path d="M491.237 21.6644C491.237 21.6644 492.004 18.2548 487.751 14.0347C483.498 9.81469 480.697 6.91823 472.252 9.01549C451.784 14.0987 454.022 17.0877 455.045 18.7982C455.045 18.7982 452.967 19.9812 452.839 23.306C452.711 26.6308 464.665 27.3342 469.542 25.9276C474.418 24.5209 475.569 23.7536 475.569 23.7536C475.569 23.7536 473.077 26.3112 473.236 27.4621C473.395 28.613 482.603 24.0094 482.603 24.0094C482.603 24.0094 481.057 26.1833 482.085 26.567C483.114 26.9506 490.536 26.4807 491.237 21.6644Z" fill="#3B2539"/>
<path d="M269.623 115.955L282.126 126.631L275.26 108.282C275.26 108.282 268.768 109.222 269.623 115.955Z" fill="#684868"/>
<path d="M208.041 284.852L216.645 343.061H228.118L232.698 284.852H208.041Z" fill="#965450"/>
<path d="M218.028 338.009L208.041 351.069C211.115 352.656 214.59 353.297 218.028 352.913C223.867 352.298 228.937 348.61 228.937 348.61L227.555 338.009H218.028Z" fill="#965450"/>
<path d="M258.815 284.852L255.527 344.374L244.087 345.229L234.103 280.53L258.815 284.852Z" fill="#965450"/>
<path d="M253.771 339.439L264.704 351.719C261.756 353.53 258.339 354.429 254.882 354.301C249.014 354.123 243.683 350.824 243.683 350.824L244.272 340.148L253.771 339.439Z" fill="#965450"/>
<path d="M243.769 349.168C243.769 349.168 242.463 358.726 242.902 360.483C243.341 362.239 251.355 363.117 256.515 363.117C261.674 363.117 264.638 363.996 269.688 363.776C274.738 363.556 278.91 363.776 279.788 361.251C280.667 358.726 262.004 349.168 262.004 349.168C262.004 349.168 261.674 352.469 255.527 352.029C251.488 351.662 247.525 350.698 243.769 349.168Z" fill="#3B2539"/>
<path d="M228.977 347.375C228.977 347.375 230.654 356.875 230.284 358.647C229.913 360.419 221.939 361.608 216.783 361.809C211.628 362.01 208.7 363.003 203.645 362.98C198.591 362.957 194.431 363.339 193.455 360.85C192.479 358.361 210.756 348.084 210.756 348.084C210.756 348.084 211.213 351.369 217.339 350.691C221.361 350.167 225.283 349.049 228.977 347.375Z" fill="#3B2539"/>
<path d="M198.532 165.924C198.532 165.924 196.23 178.152 198.532 205.798C200.834 233.445 205.438 284.852 205.438 284.852H262.984C262.984 284.852 270.656 213.709 269.505 186.172C268.355 158.635 267.971 152.497 267.971 152.497L198.532 165.924Z" fill="#FC6A5A"/>
<path d="M230.147 2.28277C229.876 1.5963 229.358 1.03653 228.694 0.714363C228.03 0.392197 227.269 0.331139 226.563 0.54329C223.716 1.07036 224.191 4.97101 224.191 4.97101C223.852 4.81317 223.483 4.73138 223.11 4.73138C222.737 4.73138 222.368 4.81317 222.03 4.97101C221.134 5.55081 221.781 7.29019 221.781 7.29019C221.781 7.29019 219.439 6.86857 218.441 8.55532C217.444 10.2421 219.341 12.4032 219.341 12.4032C218.953 12.4144 218.585 12.5735 218.31 12.8479C218.036 13.1223 217.877 13.4912 217.865 13.879C217.813 15.3022 219.499 15.5043 219.499 15.5043C219.025 16.0626 218.789 16.7853 218.843 17.516C219.119 18.4706 219.657 19.3288 220.396 19.9935C220.396 19.9935 236.525 19.888 242.165 18.6757C247.805 17.4634 247.225 14.0639 246.962 13.1281C246.698 12.1923 245.169 12.0342 245.169 12.0342C245.559 11.6287 245.832 11.1265 245.962 10.5797C246.092 10.0329 246.073 9.46132 245.907 8.92422C245.275 7.18483 242.85 8.08089 242.85 8.08089C242.85 8.08089 243.588 5.44536 242.007 4.44386C241.54 4.15786 241.006 4.00211 240.459 3.99284C239.912 3.98357 239.373 4.1211 238.897 4.39113C238.897 4.39113 238.528 2.28276 237.579 1.9665C236.63 1.65024 235.734 2.75711 235.734 2.75711C235.734 2.75711 235.471 0.121582 233.784 0.016222C232.097 -0.0891382 230.885 0.279758 230.147 2.28277Z" fill="#2A242D"/>
<path d="M243.889 70.2377C239.338 67.7555 240.579 55.7565 240.579 55.7565L233.764 56.1957V55.7581L233.035 55.9769L232.305 55.7581V56.1957L225.49 55.7565C225.49 55.7565 226.731 67.7555 222.18 70.2377C217.63 72.7199 190.739 73.961 193.635 101.679H272.435C275.33 73.961 248.44 72.72 243.889 70.2377Z" fill="#965450"/>
<path d="M224.534 67.1425C229.978 66.3311 235.419 65.494 240.855 64.631C240.401 61.6952 240.308 58.7148 240.579 55.7565L233.764 56.1957V55.7581L233.034 55.9769L232.305 55.7581V56.1957L225.49 55.7565C225.49 55.7565 226.208 62.7282 224.534 67.1425Z" fill="#76413B"/>
<path d="M244.128 69.7857C242.32 68.8159 241.401 66.4138 240.951 63.8272C235.667 64.9782 230.199 64.9901 224.91 63.862C224.458 66.4353 223.539 68.8203 221.739 69.7857C217.046 72.3036 189.314 73.5625 192.3 101.679H273.567C276.553 73.5625 248.821 72.3036 244.128 69.7857Z" fill="#FC6A5A"/>
<g opacity="0.9">
<g opacity="0.9">
<path opacity="0.9" d="M187.473 67.5985H276.707" stroke="#FDEDEE" stroke-width="3.0584" stroke-miterlimit="10"/>
<path opacity="0.9" d="M187.473 71.9495H276.707" stroke="#FDEDEE" stroke-width="3.0584" stroke-miterlimit="10"/>
<path opacity="0.9" d="M187.473 76.3004H276.707" stroke="#FDEDEE" stroke-width="3.0584" stroke-miterlimit="10"/>
<path opacity="0.9" d="M187.473 80.6512H276.707" stroke="#FDEDEE" stroke-width="3.0584" stroke-miterlimit="10"/>
<path opacity="0.9" d="M187.473 85.0021H276.707" stroke="#FDEDEE" stroke-width="3.0584" stroke-miterlimit="10"/>
<path opacity="0.9" d="M187.473 89.3531H276.707" stroke="#FDEDEE" stroke-width="3.0584" stroke-miterlimit="10"/>
<path opacity="0.9" d="M187.473 93.7039H276.707" stroke="#FDEDEE" stroke-width="3.0584" stroke-miterlimit="10"/>
<path opacity="0.9" d="M187.473 98.0549H276.707" stroke="#FDEDEE" stroke-width="3.0584" stroke-miterlimit="10"/>
</g>
</g>
<path d="M219.709 38.1931C218.368 34.0333 215.193 34.9964 214.896 35.0968C214.584 35.1332 211.303 35.6206 211.87 39.9542C212.44 44.3136 214.969 46.6762 217.341 45.9823C219.782 45.5952 221.058 42.3777 219.709 38.1931Z" fill="#76413B"/>
<path d="M246.482 38.1931C247.823 34.0333 250.998 34.9964 251.296 35.0968C251.607 35.1332 254.889 35.6206 254.322 39.9542C253.752 44.3136 251.222 46.6762 248.85 45.9823C246.41 45.5952 245.134 42.3777 246.482 38.1931Z" fill="#76413B"/>
<path d="M216.456 31.8916C218.118 13.655 231.982 14.6766 233.289 14.8139C234.597 14.6766 248.461 13.655 250.122 31.8916C251.794 50.2368 243.623 62.2179 233.289 61.5589C222.956 62.2179 214.785 50.2368 216.456 31.8916Z" fill="#965450"/>
<path d="M235.68 40.4721C236.246 41.2413 236.67 42.1058 236.931 43.0246C237.201 43.907 237.357 44.8204 237.394 45.7424L237.407 46.1368L237.24 46.2777C236.853 46.6038 236.449 46.9135 236.034 47.2131C235.612 47.5159 235.172 47.7917 234.715 48.0386C234.945 47.5731 235.205 47.1228 235.492 46.6902C235.777 46.2652 236.072 45.8504 236.384 45.4519L236.23 45.9868C235.893 45.1276 235.668 44.2287 235.561 43.3122C235.43 42.366 235.471 41.4041 235.68 40.4721Z" fill="#76413B"/>
<path d="M240.358 51.3146C237.057 54.5232 231.466 54.3452 227.231 51.4859L240.358 51.3146Z" fill="white"/>
<path d="M246.364 34.2886L243.944 33.4782C243.301 33.264 242.635 33.1207 241.96 33.0509C241.325 32.9834 240.682 33.0324 240.064 33.1955C239.689 33.2792 239.319 33.3818 238.955 33.5028C238.553 33.6249 238.173 33.8135 237.669 33.9262C237.776 33.4562 237.954 33.0053 238.197 32.589C238.462 32.1721 238.8 31.8054 239.193 31.5056C240.036 30.841 241.106 30.5316 242.174 30.6431C243.197 30.7432 244.161 31.1685 244.924 31.8567C245.657 32.4881 246.163 33.3423 246.364 34.2886Z" fill="#352C38"/>
<path d="M229.094 34.2886L226.675 33.4782C226.031 33.264 225.365 33.1207 224.69 33.0509C224.055 32.9834 223.412 33.0324 222.794 33.1955C222.419 33.2792 222.049 33.3818 221.685 33.5028C221.283 33.6249 220.903 33.8135 220.399 33.9262C220.506 33.4562 220.684 33.0053 220.927 32.589C221.193 32.1721 221.53 31.8054 221.923 31.5056C222.766 30.841 223.836 30.5316 224.904 30.6431C225.927 30.7432 226.891 31.1685 227.655 31.8567C228.387 32.4881 228.893 33.3423 229.094 34.2886Z" fill="#352C38"/>
<path d="M228.546 40.897C228.288 40.174 227.897 39.5055 227.393 38.9258C227.172 38.6835 226.902 38.4911 226.601 38.3615C226.299 38.2319 225.974 38.168 225.646 38.174C225.327 38.1404 225.005 38.1829 224.705 38.2979C224.406 38.413 224.138 38.5973 223.924 38.8359C223.472 39.4443 223.169 40.1503 223.039 40.897C222.896 40.4843 222.84 40.0465 222.873 39.611C222.907 39.1754 223.03 38.7515 223.235 38.3656C223.477 37.938 223.842 37.5927 224.283 37.3743C224.721 37.1862 225.194 37.0945 225.671 37.1055C226.147 37.1056 226.615 37.2263 227.032 37.4563C227.448 37.6864 227.8 38.0183 228.054 38.4211C228.512 39.1596 228.687 40.0393 228.546 40.897Z" fill="#352C38"/>
<path d="M244.065 40.6466C243.807 39.9236 243.416 39.2552 242.912 38.6755C242.691 38.4331 242.421 38.2408 242.12 38.1111C241.818 37.9815 241.493 37.9176 241.165 37.9236C240.846 37.89 240.524 37.9324 240.225 38.0475C239.925 38.1626 239.658 38.3469 239.443 38.5855C238.991 39.1939 238.688 39.8998 238.559 40.6466C238.415 40.2339 238.359 39.7961 238.393 39.3605C238.426 38.925 238.549 38.5011 238.754 38.1152C238.996 37.6876 239.361 37.3424 239.802 37.1239C240.24 36.9358 240.713 36.8441 241.19 36.8551C241.666 36.8552 242.134 36.9759 242.551 37.2059C242.968 37.436 243.319 37.7679 243.573 38.1707C244.031 38.9092 244.206 39.7889 244.065 40.6466Z" fill="#352C38"/>
<path d="M233.826 14.8138C233.826 14.8138 234.683 25.9927 217.729 30.6754C217.972 34.3634 217.645 38.067 216.76 41.6553C216.76 41.6553 211.27 33.7433 213.853 24.3781C216.437 15.0127 229.526 7.51022 233.826 14.8138Z" fill="#352C38"/>
<path d="M232.491 14.8138C232.491 14.8138 232.171 25.9927 249.125 30.6754C249.125 30.6754 248.318 37.7801 249.771 43.1086C249.771 43.1086 255.584 33.7433 253.001 24.378C250.417 15.0128 236.791 7.51021 232.491 14.8138Z" fill="#352C38"/>
<path d="M220.29 29.8672C217.821 28.1822 215.726 26.0046 214.139 23.4714C214.033 23.7714 213.937 24.0736 213.853 24.3781C211.27 33.7433 216.76 41.6554 216.76 41.6554C217.645 38.067 217.972 34.3635 217.729 30.6754C218.636 30.4248 219.482 30.1523 220.29 29.8672Z" fill="#2A242D"/>
<path d="M273.782 99.4421C274.029 89.353 269.304 77.4413 259.435 73.0884C249.567 68.7354 242.669 68.6929 242.669 68.6929L234.374 96.9171H231.535L223.241 68.6929C223.241 68.6929 216.343 68.7353 206.474 73.0884C196.605 77.4413 191.881 89.353 192.127 99.4421C192.374 109.531 196.773 129.095 196.773 129.095L193.426 170.272C204.304 172.926 223.659 172.348 232.955 171.871C242.251 172.348 261.605 172.926 272.484 170.272L269.136 129.095C269.136 129.095 273.535 109.531 273.782 99.4421Z" fill="#3B2539"/>
<path d="M191.512 124.959L200.083 163.396L214.268 205.061L227.09 201.019L214.407 152.77L208.341 120.598L191.512 124.959Z" fill="#965450"/>
<path d="M227.09 201.019L213.786 202.815L215.266 221.004L216.57 226.872C216.666 227.301 216.92 227.678 217.283 227.926C217.646 228.175 218.089 228.276 218.524 228.209C218.958 228.143 219.351 227.914 219.623 227.569C219.895 227.223 220.026 226.788 219.989 226.35L219.498 220.554L220.099 220.49L221.564 226.869C221.67 227.332 221.95 227.736 222.345 227.999C222.74 228.263 223.222 228.364 223.69 228.284C224.158 228.203 224.577 227.946 224.861 227.566C225.146 227.185 225.274 226.71 225.219 226.239L224.604 220.95L225.963 226.869C226.07 227.332 226.349 227.736 226.744 227.999C227.14 228.263 227.621 228.364 228.089 228.284C228.557 228.203 228.976 227.946 229.261 227.566C229.545 227.185 229.673 226.71 229.618 226.239L228.842 219.562L228.885 219.557L230.188 225.816C230.268 226.199 230.487 226.538 230.802 226.769C231.118 227 231.508 227.106 231.898 227.066C232.287 227.026 232.647 226.843 232.909 226.552C233.171 226.262 233.316 225.885 233.316 225.493V219.086L227.09 201.019Z" fill="#965450"/>
<path d="M200.667 76.9982C200.667 76.9982 193.078 79.1198 188.986 89.353C184.894 99.5863 188.218 120.138 190.009 131.474C191.799 142.81 211.748 201.019 211.748 201.019L226.313 198.064L210.725 119.024C210.725 119.024 204.676 82.0469 200.667 76.9982Z" fill="#684868"/>
<path d="M253.433 59.4022C255.593 60.0813 257.68 60.9733 259.663 62.0651L262.408 55.9975L262.403 55.9954C262.542 55.6583 262.855 54.9693 263.271 54.0889L263.272 54.0874C264.668 51.1385 267.241 46.0203 268.433 44.579C269.98 42.7071 270.999 44.4254 270.383 45.6933C269.908 46.6716 267.578 53.2466 266.537 56.201L266.654 56.2768C267.897 53.586 270.892 47.5224 272.206 45.9327C273.754 44.0609 274.772 45.779 274.156 47.047C273.624 48.1423 270.767 56.2523 269.999 58.4418L270.088 58.4996C271.451 55.6014 274.143 50.2183 275.37 48.7341C276.918 46.8623 277.936 48.5805 277.32 49.8484C276.914 50.6855 275.149 55.6212 273.996 58.88C275.201 56.7514 276.571 54.7201 278.093 52.8045C279.645 51.2076 280.449 52.8525 279.793 53.966C279.344 54.7286 277.234 59.4162 275.949 62.2945L272.515 70.691L274.238 76.1788L262.704 79.0818L261.005 72.7625L257.833 66.824C256.262 65.2353 254.092 63.094 253.022 62.2774C251.233 60.9129 250.438 58.701 253.433 59.4022Z" fill="#965450"/>
<path d="M273.174 61.959C273.124 61.9546 273.076 61.9378 273.034 61.9102L264.205 56.1536C264.171 56.1316 264.142 56.1031 264.119 56.0698C264.096 56.0365 264.08 55.999 264.072 55.9596C264.063 55.9201 264.063 55.8793 264.07 55.8396C264.078 55.8 264.093 55.7622 264.115 55.7284C264.137 55.6945 264.166 55.6654 264.199 55.6426C264.232 55.6198 264.27 55.6038 264.309 55.5955C264.349 55.5872 264.389 55.5867 264.429 55.5941C264.469 55.6015 264.507 55.6167 264.54 55.6388L273.37 61.3954C273.427 61.4329 273.471 61.4885 273.493 61.5535C273.515 61.6184 273.515 61.6889 273.492 61.7537C273.47 61.8185 273.426 61.874 273.369 61.9112C273.311 61.9484 273.243 61.9652 273.174 61.959Z" fill="#76413B"/>
<path d="M263.871 66.9212C263.804 66.9151 263.74 66.8869 263.691 66.8411C263.641 66.7953 263.608 66.7343 263.596 66.6677C263.214 65.0266 262.21 63.5976 260.796 62.681C260.727 62.6387 260.677 62.5707 260.658 62.4918C260.638 62.4129 260.651 62.3295 260.693 62.2599C260.735 62.1903 260.803 62.1401 260.882 62.1203C260.96 62.1006 261.044 62.1128 261.114 62.1543C261.893 62.6497 262.567 63.2941 263.097 64.0506C263.627 64.807 264.002 65.6605 264.202 66.5623C264.21 66.6088 264.207 66.6565 264.194 66.7018C264.181 66.747 264.157 66.7886 264.125 66.8233C264.093 66.858 264.054 66.8849 264.01 66.9019C263.966 66.9188 263.918 66.9255 263.871 66.9212Z" fill="#76413B"/>
<path d="M262.704 79.0818C262.704 79.0818 268.481 102.567 271.861 107.308C275.241 112.05 278.807 112.556 282.243 112.122C285.678 111.689 288.493 107.176 287.672 103.365C286.851 99.5528 273.995 75.4052 273.995 75.4052C273.995 75.4052 263.914 76.5601 262.704 79.0818Z" fill="#E38680"/>
<path d="M273.51 73.8583C273.51 73.8583 266.078 75.42 260.648 76.9983C260.648 76.9983 271.852 112.886 277.99 122.349C284.128 131.812 293.336 127.72 294.359 125.418C295.382 123.116 297.172 120.047 294.359 113.142C291.545 106.236 273.51 73.8583 273.51 73.8583Z" fill="#684868"/>
<path d="M322.907 337.443V346.779H336.846L337.613 337.443H322.907Z" fill="#965450"/>
<path d="M323.674 345.883C320.173 349.206 316.21 352.005 311.909 354.195C305.643 357.136 303.469 358.543 302.574 361.356C301.679 364.17 307.05 365.448 313.443 365.065C319.837 364.681 330.835 362.891 333.521 362.635C336.206 362.379 338.892 361.996 339.531 361.356C340.17 360.717 336.962 345.36 336.962 345.36L323.674 345.883Z" fill="#3B2539"/>
<path d="M385.344 339.517L385.918 348.835L372.006 349.691L371.246 337.187L385.344 339.517Z" fill="#965450"/>
<path d="M385.097 347.988C388.796 351.09 392.923 353.641 397.351 355.562C403.786 358.113 406.042 359.383 407.108 362.136C408.175 364.889 402.892 366.496 396.487 366.505C390.082 366.515 378.995 365.404 376.299 365.314C373.602 365.223 370.898 365.006 370.221 364.407C369.544 363.808 371.802 348.283 371.802 348.283L385.097 347.988Z" fill="#3B2539"/>
<path d="M313.443 172.279L318.825 339.439H342.711L348.476 205.966L350.628 203.116L367.264 339.439H392.217L379.582 172.279H313.443Z" fill="#3B2539"/>
<path d="M353.207 68.81C348.756 66.6372 349.422 55.1296 349.422 55.1296L342.935 55.8433L342.916 55.4255L342.229 55.6659L341.524 55.4885L341.543 55.9063L335.018 55.7815C335.018 55.7815 336.721 67.1818 332.484 69.7478C328.247 72.3139 302.632 74.6602 306.594 100.994L343.508 99.3237L344.9 99.2607L381.814 97.5901C383.381 71.006 357.658 70.9829 353.207 68.81Z" fill="#965450"/>
<path d="M334.598 66.6915C339.759 65.6818 344.916 64.6476 350.069 63.5891C349.508 60.8062 349.291 57.9653 349.422 55.1296L342.935 55.8433L342.916 55.4255L342.23 55.6659L341.524 55.4885L341.543 55.9063L335.018 55.7815C335.018 55.7815 336.005 62.4054 334.598 66.6915Z" fill="#76413B"/>
<path d="M328.741 39.2657C327.282 35.3528 324.292 36.4092 324.013 36.5179C323.717 36.5661 320.605 37.1731 321.334 41.2853C322.066 45.4221 324.583 47.5682 326.817 46.8033C329.13 46.3283 330.209 43.202 328.741 39.2657Z" fill="#76413B"/>
<path d="M354.298 38.1091C355.398 34.0803 358.471 34.8624 358.759 34.9454C359.058 34.9667 362.212 35.2901 361.858 39.4514C361.502 43.6375 359.189 46.002 356.895 45.442C354.548 45.178 353.191 42.1618 354.298 38.1091Z" fill="#76413B"/>
<path d="M325.364 33.3907C326.162 15.9108 339.44 16.287 340.695 16.3616C341.937 16.174 355.127 14.6 357.501 31.9364C359.889 49.3761 352.606 61.166 342.714 60.9832C332.878 62.0588 324.561 50.9748 325.364 33.3907Z" fill="#965450"/>
<path d="M343.807 34.6016C344.456 36.1284 344.943 37.7197 345.257 39.349C345.411 40.1539 345.57 40.9581 345.668 41.7719C345.788 42.5823 345.862 43.3996 345.916 44.2203L345.943 44.6264L345.687 44.7874C345.167 45.1144 344.632 45.4227 344.089 45.7193C343.539 46.0175 342.974 46.2864 342.396 46.5245C342.784 46.034 343.198 45.5645 343.635 45.1179C344.07 44.6771 344.513 44.2481 344.97 43.8377L344.741 44.4045C344.541 43.6067 344.363 42.8056 344.228 41.9975C344.072 41.1928 343.978 40.3786 343.878 39.565C343.679 37.9177 343.655 36.2539 343.807 34.6016Z" fill="#76413B"/>
<path d="M348.949 49.3617C345.936 52.5671 340.592 52.6387 336.426 50.0922L348.949 49.3617Z" fill="white"/>
<path d="M353.947 32.8494L351.582 32.2175C350.963 32.0507 350.328 31.9484 349.687 31.912C349.087 31.875 348.484 31.9436 347.907 32.1149C347.565 32.1625 347.249 32.3387 346.858 32.4389C346.476 32.5664 346.116 32.7573 345.631 32.8793C345.704 32.4199 345.848 31.9749 346.059 31.5604C346.429 30.9044 346.974 30.3641 347.633 29.9998C348.292 29.6354 349.04 29.4613 349.792 29.497C350.781 29.5483 351.727 29.9189 352.488 30.5533C353.217 31.1344 353.73 31.9427 353.947 32.8494Z" fill="#352C38"/>
<path d="M337.462 33.5955L335.097 32.9635C334.477 32.7968 333.842 32.6945 333.202 32.6581C332.601 32.6211 331.999 32.6897 331.422 32.861C331.08 32.9086 330.764 33.0848 330.373 33.1851C329.991 33.3125 329.631 33.5035 329.146 33.6253C329.218 33.166 329.363 32.721 329.574 32.3065C329.944 31.6505 330.489 31.1102 331.148 30.7458C331.807 30.3815 332.554 30.2074 333.306 30.2432C334.296 30.2944 335.242 30.665 336.002 31.2994C336.731 31.8805 337.245 32.6888 337.462 33.5955Z" fill="#352C38"/>
<path d="M337.224 39.9276C336.938 39.2527 336.532 38.6358 336.024 38.1076C335.803 37.8894 335.539 37.7204 335.248 37.6118C334.958 37.5031 334.648 37.4573 334.338 37.4773C334.036 37.4589 333.733 37.5121 333.456 37.6323C333.178 37.7526 332.932 37.9366 332.738 38.1695C332.331 38.7663 332.067 39.4495 331.967 40.1654C331.808 39.7776 331.731 39.3608 331.741 38.9417C331.752 38.5225 331.85 38.1101 332.028 37.7308C332.242 37.3079 332.578 36.9589 332.992 36.7288C333.405 36.5283 333.856 36.4192 334.314 36.4087C334.772 36.3882 335.228 36.4843 335.638 36.6881C336.049 36.8918 336.401 37.1965 336.661 37.5735C337.131 38.2628 337.331 39.1005 337.224 39.9276Z" fill="#352C38"/>
<path d="M352.027 39.0181C351.742 38.3432 351.335 37.7263 350.827 37.1981C350.607 36.9799 350.343 36.8109 350.052 36.7023C349.761 36.5936 349.451 36.5478 349.141 36.5678C348.839 36.5495 348.537 36.6026 348.259 36.7228C347.981 36.8431 347.735 37.0271 347.542 37.26C347.134 37.8568 346.87 38.54 346.771 39.2559C346.611 38.8682 346.534 38.4514 346.545 38.0322C346.555 37.613 346.653 37.2007 346.832 36.8214C347.046 36.3985 347.381 36.0494 347.795 35.8193C348.208 35.6189 348.659 35.5097 349.118 35.4992C349.576 35.4787 350.031 35.5748 350.442 35.7786C350.852 35.9823 351.204 36.287 351.465 36.664C351.934 37.3533 352.134 38.191 352.027 39.0181Z" fill="#352C38"/>
<path d="M357.581 18.4836C356.527 14.9532 354.356 14.1469 353.325 13.9647C352.32 4.79252 327.662 4.21881 327.422 5.99221C327.166 7.88556 336.353 10.5489 336.353 10.5489C336.353 10.5489 319.941 7.01502 320.965 10.7321C321.796 13.7515 328.332 13.1265 330.757 12.7856C327.353 13.3672 315.737 15.7761 321.25 20.812C321.693 21.2139 322.178 21.5683 322.695 21.8696C322.499 28.4312 325.136 43.73 325.136 43.73L326.501 43.6682L325.51 33.107C328.132 32.4579 329.058 26.1331 329.343 23.3198C332.983 23.0845 336.555 22.215 339.897 20.7507C338.914 21.2636 337.377 22.4051 339.182 23.935C341.024 25.4966 347.275 23.2095 350.405 21.9129C351.104 24.3796 353.302 31.2879 356.128 31.7214L356.095 42.3289L357.46 42.2671C357.46 42.2671 358.993 23.2096 357.581 18.4836Z" fill="#FDDEC0"/>
<path d="M357.581 18.4836C356.527 14.9532 354.356 14.1469 353.325 13.9647C353.198 13.1208 352.9 12.3119 352.447 11.5885C351.995 10.865 351.398 10.2426 350.694 9.75995C350.212 16.0327 345.887 21.5429 340.208 24.3723C342.73 24.8654 347.716 23.0271 350.405 21.9129C351.103 24.3796 353.301 31.2879 356.128 31.7214L356.095 42.329L357.46 42.2671C357.46 42.2671 358.993 23.2096 357.581 18.4836Z" fill="#D3B9A3"/>
<path d="M382.492 97.5593C383.748 76.2486 367.78 71.7049 358.721 69.6558C357.535 72.8136 355.447 75.5537 352.718 77.5364C349.989 79.5191 346.737 80.6573 343.367 80.8098C339.997 80.9623 336.657 80.1224 333.759 78.3943C330.862 76.6662 328.536 74.1258 327.069 71.0881C318.232 73.9471 302.74 79.9145 305.916 101.025L310.758 147.797V175.675H380.197C380.197 175.675 383.152 106.72 382.492 97.5593Z" fill="#E69848"/>
<path d="M295.478 91.6654L278.596 127.178L293.758 135.664L313.443 105.495L295.478 91.6654Z" fill="#965450"/>
<path d="M293.055 128.474L310.406 163.411L300.792 170.053C300.792 170.053 278.752 142.674 277.579 135.808C276.407 128.942 281.799 120.44 281.799 120.44L293.055 128.474Z" fill="#965450"/>
<path d="M309.737 162.064C309.737 162.064 312.594 167.319 313.142 170.367C313.528 172.521 312.002 178.071 311.074 181.141C310.89 181.75 310.509 182.282 309.992 182.653C309.475 183.024 308.849 183.214 308.213 183.193L300.636 182.95C300.636 182.95 299.386 178.183 300.245 175.369L301.105 172.555L300.426 169.597L309.737 162.064Z" fill="#965450"/>
<path d="M305.638 180.957C305.638 180.957 302.825 185.471 302.004 186.174C301.183 186.878 295.849 185.354 295.79 184.005C295.732 182.657 299.944 183.263 299.944 183.263L301.242 181.661L305.638 180.957Z" fill="#965450"/>
<path d="M308.628 180.664C308.628 180.664 306.049 185.002 305.052 185.94C304.056 186.878 301.301 184.709 301.301 184.709L303.88 181.954L308.628 180.664Z" fill="#965450"/>
<path d="M311.149 178.964C310.583 180.764 309.816 182.495 308.862 184.123C307.631 185.94 304.964 184.123 304.964 184.123L308.056 180.019L311.149 178.964Z" fill="#965450"/>
<path d="M319.897 73.8582C319.897 73.8582 312.555 73.3362 306.573 76.9982C300.592 80.6602 289.122 99.4585 289.122 99.4585L305.493 117.68L314.786 104.062L319.897 73.8582Z" fill="#E69848"/>
<path d="M385.89 70.9341L408.6 69.6276L427.583 82.2878C427.583 82.2878 400.497 91.2305 392.784 90.0218C388.384 89.3914 384.123 88.0212 380.18 85.9692L385.89 70.9341Z" fill="#965450"/>
<path d="M367.86 39.3031C370.365 38.8665 372.908 38.68 375.45 38.7463L375.058 31.2764L375.053 31.2766C375.017 30.869 374.973 30.0201 374.935 28.9267L374.935 28.9248C374.807 25.2624 374.733 18.8286 375.179 16.7758C375.758 14.1097 377.66 15.2988 377.7 16.8815C377.73 18.1027 378.797 25.8649 379.283 29.3493L379.439 29.3645C379.29 26.0389 379.151 18.444 379.642 16.1799C380.221 13.5138 382.123 14.7028 382.163 16.2855C382.197 17.6528 383.53 27.2183 383.893 29.7993L384.012 29.8109C383.877 26.2161 383.785 19.4566 384.244 17.3429C384.823 14.6767 386.725 15.8658 386.765 17.4485C386.791 18.4933 387.576 24.3285 388.107 28.1746C388.212 25.4288 388.531 22.6954 389.061 19.9992C389.785 17.6054 391.436 18.8317 391.356 20.2809C391.302 21.2735 391.615 27.039 391.817 30.5737L392.722 40.7229L397.273 45.309L387.262 54.1556L382.307 48.7272L376.078 44.4385C373.692 43.6637 370.423 42.6464 368.933 42.3839C366.444 41.9454 364.51 40.1487 367.86 39.3031Z" fill="#965450"/>
<path d="M388.876 31.6704C388.823 31.6919 388.767 31.7 388.711 31.6941L376.931 30.5053C376.841 30.4958 376.757 30.4507 376.7 30.3798C376.642 30.309 376.615 30.2182 376.624 30.1274C376.633 30.0365 376.678 29.953 376.749 29.8951C376.819 29.8372 376.91 29.8096 377.001 29.8184L388.78 31.0072C388.857 31.015 388.929 31.0482 388.984 31.1015C389.04 31.1548 389.076 31.2252 389.087 31.3015C389.098 31.3778 389.083 31.4555 389.045 31.5224C389.007 31.5892 388.947 31.6414 388.876 31.6704Z" fill="#76413B"/>
<path d="M382.154 41.4205C382.083 41.4491 382.005 41.4537 381.932 41.4336C381.859 41.4136 381.794 41.3699 381.748 41.3094C380.52 39.8691 378.782 38.9611 376.898 38.7761C376.807 38.7698 376.722 38.7277 376.662 38.659C376.602 38.5902 376.571 38.5004 376.577 38.4092C376.583 38.318 376.625 38.2329 376.694 38.1725C376.762 38.1121 376.852 38.0813 376.943 38.0869C377.976 38.1791 378.981 38.4744 379.9 38.9557C380.819 39.4371 381.634 40.095 382.298 40.8919C382.326 40.928 382.346 40.9691 382.357 41.013C382.369 41.0569 382.372 41.1026 382.366 41.1475C382.359 41.1924 382.344 41.2357 382.322 41.2748C382.299 41.314 382.268 41.3482 382.232 41.3756C382.208 41.394 382.182 41.4091 382.154 41.4205Z" fill="#76413B"/>
<path d="M393.117 41.632C393.117 41.632 424.155 61.5302 428.31 66.5814C432.465 71.6326 431.971 75.6484 430.497 79.2472C429.023 82.8459 423.306 84.5807 419.412 82.5759C415.518 80.5711 385.83 52.8033 385.83 52.8033C385.83 52.8033 390.029 42.2069 393.117 41.632Z" fill="#965450"/>
<path d="M361.886 70.4319C361.886 70.4319 364.66 68.7674 373.292 68.0001C381.923 67.2327 393.433 68.8724 393.433 68.8724L398.474 92.3612L378.471 97.5403L361.886 70.4319Z" fill="#E69848"/>
</svg>
