<svg width="47" height="47" viewBox="0 0 47 47" fill="none" xmlns="http://www.w3.org/2000/svg">
<path d="M31.3333 31.3334H43.0833" stroke="#476072" stroke-width="3.91667" stroke-linecap="round" stroke-linejoin="round"/>
<path d="M37.2083 25.4584V37.2084" stroke="#476072" stroke-width="3.91667" stroke-linecap="round" stroke-linejoin="round"/>
<path d="M41.125 19.5834V15.6668C41.1243 14.9799 40.943 14.3053 40.5993 13.7107C40.2555 13.1161 39.7615 12.6223 39.1667 12.2788L25.4583 4.44551C24.8629 4.10175 24.1875 3.92078 23.5 3.92078C22.8125 3.92078 22.1371 4.10175 21.5417 4.44551L7.83333 12.2788C7.23851 12.6223 6.74446 13.1161 6.40074 13.7107C6.05701 14.3053 5.8757 14.9799 5.875 15.6668V31.3334C5.8757 32.0203 6.05701 32.6948 6.40074 33.2895C6.74446 33.8841 7.23851 34.3779 7.83333 34.7213L21.5417 42.5547C22.1371 42.8984 22.8125 43.0794 23.5 43.0794C24.1875 43.0794 24.8629 42.8984 25.4583 42.5547L29.375 40.3222" stroke="#476072" stroke-width="3.91667" stroke-linecap="round" stroke-linejoin="round"/>
<path d="M32.3125 18.4083L14.7854 8.30334" stroke="#476072" stroke-width="3.91667" stroke-linecap="round" stroke-linejoin="round"/>
<path d="M23.5 23.5V43.0834M6.44291 13.7084L23.5 23.5L6.44291 13.7084ZM23.5 23.5L40.5571 13.7084L23.5 23.5Z" stroke="#476072" stroke-width="3.91667" stroke-linecap="round" stroke-linejoin="round"/>
</svg>
