<svg width="171" height="47" viewBox="0 0 171 47" fill="none" xmlns="http://www.w3.org/2000/svg">
<path d="M2.64 46.24L0.6 41.28C2.01333 40.8 3.30667 40.24 4.48 39.6C5.68 38.96 6.72 38.2533 7.6 37.48C8.48 36.7067 9.16 35.8667 9.64 34.96C10.12 34.0267 10.36 33.0267 10.36 31.96C10.36 30.84 10.1067 29.6133 9.6 28.28C9.09333 26.9467 8.48 25.5867 7.76 24.2L13 21.68C13.48 22.5067 13.8933 23.4 14.24 24.36C14.6133 25.2933 14.92 26.1333 15.16 26.88C15.4 27.6267 15.56 28.1333 15.64 28.4C16.0133 29.68 16.52 30.5333 17.16 30.96C17.8267 31.3867 18.8933 31.6 20.36 31.6C21.3733 31.6 22.0933 31.8667 22.52 32.4C22.9733 32.9067 23.2 33.5467 23.2 34.32C23.2 35.1467 22.92 35.84 22.36 36.4C21.8 36.9333 21 37.2 19.96 37.2C18.8667 37.2 17.9067 37.04 17.08 36.72C16.2533 36.4 15.5867 35.9333 15.08 35.32C14.6 34.7067 14.2933 33.9867 14.16 33.16L15.64 34C15.48 35.4133 15.0133 36.7467 14.24 38C13.4933 39.28 12.52 40.4533 11.32 41.52C10.12 42.5867 8.77333 43.52 7.28 44.32C5.78667 45.12 4.24 45.76 2.64 46.24ZM20.0078 37.2L20.4078 31.6C21.3678 31.6 22.1945 31.5067 22.8878 31.32C23.5811 31.1333 24.1678 30.76 24.6478 30.2C25.1278 29.6133 25.5278 28.76 25.8478 27.64C26.1945 26.52 26.5011 25.0267 26.7678 23.16L32.0078 24.04C31.9545 24.44 31.8745 24.9067 31.7678 25.44C31.6878 25.9733 31.6078 26.52 31.5278 27.08C31.4745 27.6133 31.4478 28.12 31.4478 28.6C31.4478 29.08 31.5411 29.5067 31.7278 29.88C31.9145 30.2533 32.2078 30.5733 32.6078 30.84C33.0345 31.08 33.5811 31.2667 34.2478 31.4C34.9411 31.5333 35.7811 31.6 36.7678 31.6C37.7811 31.6 38.5011 31.8667 38.9278 32.4C39.3545 32.9067 39.5678 33.5467 39.5678 34.32C39.5678 35.1467 39.2878 35.84 38.7278 36.4C38.1945 36.9333 37.4078 37.2 36.3678 37.2C35.1678 37.2 34.0745 37.1067 33.0878 36.92C32.1278 36.7333 31.2878 36.4267 30.5678 36C29.8745 35.5467 29.3011 34.96 28.8478 34.24C28.4211 33.4933 28.1545 32.5867 28.0478 31.52H29.9678C29.4878 32.8 28.8745 33.8267 28.1278 34.6C27.4078 35.3467 26.5945 35.9067 25.6878 36.28C24.7811 36.6533 23.8345 36.8933 22.8478 37C21.8878 37.1333 20.9411 37.2 20.0078 37.2ZM31.1678 46.48C30.3945 46.48 29.7278 46.2 29.1678 45.64C28.6345 45.1067 28.3678 44.4667 28.3678 43.72C28.3678 42.9467 28.6345 42.28 29.1678 41.72C29.7278 41.16 30.3945 40.88 31.1678 40.88C31.9145 40.88 32.5545 41.16 33.0878 41.72C33.6211 42.28 33.8878 42.9467 33.8878 43.72C33.8878 44.4667 33.6211 45.1067 33.0878 45.64C32.5545 46.2 31.9145 46.48 31.1678 46.48ZM24.2478 46.48C23.4745 46.48 22.8078 46.2 22.2478 45.64C21.7145 45.1067 21.4478 44.4667 21.4478 43.72C21.4478 42.9467 21.7145 42.28 22.2478 41.72C22.8078 41.16 23.4745 40.88 24.2478 40.88C24.9945 40.88 25.6345 41.16 26.1678 41.72C26.7011 42.28 26.9678 42.9467 26.9678 43.72C26.9678 44.4667 26.7011 45.1067 26.1678 45.64C25.6345 46.2 24.9945 46.48 24.2478 46.48ZM36.375 37.2L36.775 31.6C38.215 31.6 39.6417 31.52 41.055 31.36C42.4683 31.2 43.8417 30.96 45.175 30.64C46.5083 30.32 47.775 29.9067 48.975 29.4C50.2017 28.8933 51.3483 28.28 52.415 27.56C51.615 27.08 50.7483 26.6667 49.815 26.32C48.8817 25.9733 47.8817 25.72 46.815 25.56C45.775 25.3733 44.6683 25.28 43.495 25.28C43.0683 25.28 42.615 25.2933 42.135 25.32C41.6817 25.3467 41.215 25.4 40.735 25.48C40.255 25.5333 39.775 25.6133 39.295 25.72L38.495 20.24C39.2683 20.0267 40.0817 19.88 40.935 19.8C41.815 19.6933 42.5883 19.64 43.255 19.64C44.695 19.64 46.015 19.8 47.215 20.12C48.4417 20.44 49.5617 20.84 50.575 21.32C51.615 21.8 52.575 22.28 53.455 22.76C54.3617 23.24 55.215 23.64 56.015 23.96C56.8417 24.28 57.6417 24.44 58.415 24.44H59.895L60.535 29.76C59.3883 29.8133 58.3083 30.04 57.295 30.44C56.3083 30.8133 55.3217 31.2933 54.335 31.88C53.375 32.44 52.335 33.0267 51.215 33.64C50.1217 34.2533 48.8817 34.8267 47.495 35.36C46.1083 35.8933 44.5083 36.3333 42.695 36.68C40.8817 37.0267 38.775 37.2 36.375 37.2ZM43.295 15.92C42.4683 15.92 41.7617 15.64 41.175 15.08C40.615 14.52 40.335 13.8267 40.335 13C40.335 12.1733 40.615 11.4667 41.175 10.88C41.7617 10.2933 42.4683 10 43.295 10C44.095 10 44.775 10.2933 45.335 10.88C45.9217 11.4667 46.215 12.1733 46.215 13C46.215 13.8267 45.9217 14.52 45.335 15.08C44.775 15.64 44.095 15.92 43.295 15.92ZM80.4122 37.12C78.9189 37.12 77.5722 36.8667 76.3722 36.36C75.1989 35.8267 74.2655 35.04 73.5722 34C72.9055 32.9333 72.5722 31.6133 72.5722 30.04C72.5722 28.4667 73.1055 26.72 74.1722 24.8C75.2389 22.8533 77.0255 20.9067 79.5322 18.96L79.1322 22.64L75.5322 19.84L79.2922 15.24C81.3189 16.7867 83.0522 18.2933 84.4922 19.76C85.9589 21.2 87.0789 22.68 87.8522 24.2C88.6255 25.72 89.0122 27.3333 89.0122 29.04C89.0122 29.8667 88.8789 30.76 88.6122 31.72C88.3455 32.6533 87.8922 33.5333 87.2522 34.36C86.6122 35.16 85.7322 35.8267 84.6122 36.36C83.5189 36.8667 82.1189 37.12 80.4122 37.12ZM80.8522 31.6C81.5189 31.6 82.0522 31.4667 82.4522 31.2C82.8789 30.9333 83.1989 30.5867 83.4122 30.16C83.6255 29.7333 83.7322 29.28 83.7322 28.8C83.7322 28.32 83.6255 27.8 83.4122 27.24C83.1989 26.68 82.7855 26.0533 82.1722 25.36C81.5589 24.6667 80.6522 23.8667 79.4522 22.96L82.4922 22.56C81.3989 23.3067 80.5189 24.0667 79.8522 24.84C79.1855 25.6133 78.7055 26.36 78.4122 27.08C78.1455 27.7733 78.0122 28.4133 78.0122 29C78.0122 29.8533 78.2922 30.5067 78.8522 30.96C79.4122 31.3867 80.0789 31.6 80.8522 31.6ZM84.1322 12.24C83.3589 12.24 82.6922 11.9733 82.1322 11.44C81.5989 10.88 81.3322 10.2267 81.3322 9.48C81.3322 8.70667 81.5989 8.04 82.1322 7.48C82.6922 6.92 83.3589 6.64 84.1322 6.64C84.8789 6.64 85.5189 6.92 86.0522 7.48C86.5855 8.04 86.8522 8.70667 86.8522 9.48C86.8522 10.2267 86.5855 10.88 86.0522 11.44C85.5189 11.9733 84.8789 12.24 84.1322 12.24ZM77.2122 12.2C76.4389 12.2 75.7722 11.9333 75.2122 11.4C74.6789 10.84 74.4122 10.1867 74.4122 9.44C74.4122 8.66667 74.6789 8 75.2122 7.44C75.7722 6.88 76.4389 6.6 77.2122 6.6C77.9589 6.6 78.5989 6.88 79.1322 7.44C79.6655 8 79.9322 8.66667 79.9322 9.44C79.9322 10.1867 79.6655 10.84 79.1322 11.4C78.5989 11.9333 77.9589 12.2 77.2122 12.2ZM89.3588 46.2L87.3187 41.08C89.6121 40.28 91.4654 39.4 92.8788 38.44C94.3188 37.48 95.3721 36.4533 96.0388 35.36C96.7321 34.2667 97.0788 33.1333 97.0788 31.96C97.0788 31.2133 96.9721 30.44 96.7588 29.64C96.5454 28.8133 96.2388 27.9467 95.8388 27.04C95.4654 26.1333 95.0121 25.1867 94.4788 24.2L99.7188 21.68C100.652 23.4667 101.372 25.1733 101.879 26.8C102.412 28.4267 102.679 29.9467 102.679 31.36C102.679 32.6667 102.505 33.92 102.159 35.12C101.839 36.32 101.332 37.44 100.639 38.48C99.9721 39.5467 99.1054 40.5467 98.0388 41.48C96.9721 42.4133 95.7188 43.2667 94.2788 44.04C92.8388 44.84 91.1988 45.56 89.3588 46.2ZM106.486 35.4L108.446 30.32C109.433 30.7467 110.379 31.0667 111.286 31.28C112.193 31.4933 113.099 31.6 114.006 31.6C114.939 31.6 115.713 31.52 116.326 31.36C116.966 31.1733 117.446 30.9067 117.766 30.56C118.086 30.2133 118.246 29.8 118.246 29.32C118.246 28.8667 118.099 28.24 117.806 27.44C117.539 26.64 117.046 25.6 116.326 24.32C115.606 23.0133 114.553 21.4 113.166 19.48L117.926 16.32C119.206 18.1333 120.313 19.9067 121.246 21.64C122.179 23.3467 122.899 24.9467 123.406 26.44C123.939 27.9067 124.206 29.2 124.206 30.32C124.206 31.7067 123.833 32.92 123.086 33.96C122.366 34.9733 121.286 35.7733 119.846 36.36C118.433 36.9467 116.686 37.24 114.606 37.24C113.833 37.24 112.966 37.1733 112.006 37.04C111.046 36.9067 110.073 36.7067 109.086 36.44C108.126 36.1733 107.259 35.8267 106.486 35.4ZM114.046 13.28C113.219 13.28 112.513 13 111.926 12.44C111.366 11.88 111.086 11.1867 111.086 10.36C111.086 9.53333 111.366 8.82667 111.926 8.24C112.513 7.65333 113.219 7.36 114.046 7.36C114.846 7.36 115.526 7.65333 116.086 8.24C116.673 8.82667 116.966 9.53333 116.966 10.36C116.966 11.1867 116.673 11.88 116.086 12.44C115.526 13 114.846 13.28 114.046 13.28Z" fill="white"/>
<circle cx="152.333" cy="23.6667" r="18.3333" fill="#1089FF"/>
<path fill-rule="evenodd" clip-rule="evenodd" d="M145.359 6.70666C147.509 5.82152 149.864 5.33333 152.333 5.33333C162.459 5.33333 170.667 13.5414 170.667 23.6667C170.667 24.9082 170.543 26.121 170.308 27.2933C168.158 28.1785 165.803 28.6667 163.333 28.6667C153.208 28.6667 145 20.4585 145 10.3333C145 9.09175 145.123 7.87899 145.359 6.70666Z" fill="#F8F8F8"/>
<path fill-rule="evenodd" clip-rule="evenodd" d="M152.333 5.33333C162.459 5.33333 170.667 13.5414 170.667 23.6667C160.541 23.6667 152.333 15.4585 152.333 5.33333Z" fill="#C2E1FF"/>
</svg>
