<svg width="22" height="22" viewBox="0 0 22 22" fill="none" xmlns="http://www.w3.org/2000/svg">
<path d="M21.5685 20.3237L17.8447 16.6829L17.7574 16.5502C17.5951 16.3886 17.3732 16.2976 17.1416 16.2976C16.91 16.2976 16.6881 16.3886 16.5258 16.5502C13.3611 19.4536 8.48468 19.6114 5.13053 16.919C1.77637 14.2266 0.985328 9.51944 3.28201 5.91931C5.5787 2.31918 10.2504 0.94321 14.1989 2.70394C18.1474 4.46467 20.1475 8.81573 18.8726 12.8715C18.7808 13.1645 18.8559 13.4831 19.0695 13.7074C19.2831 13.9316 19.6029 14.0274 19.9083 13.9586C20.2138 13.8899 20.4585 13.667 20.5503 13.374C22.0743 8.56099 19.7726 3.38148 15.1341 1.18611C10.4957 -1.00927 4.91259 0.438352 1.9965 4.59249C-0.919603 8.74664 -0.293536 14.3606 3.4697 17.8028C7.23293 21.2449 13.004 21.4822 17.0495 18.3611L20.3466 21.5847C20.6872 21.9162 21.2377 21.9162 21.5782 21.5847C21.9184 21.2485 21.9184 20.7073 21.5782 20.3711L21.5685 20.3237Z" fill="white"/>
</svg>
